<?xml version="1.0" encoding="utf-8"?>
<!-- Generator: Adobe Illustrator 23.0.1, SVG Export Plug-In . SVG Version: 6.00 Build 0)  -->
<svg version="1.1" id="OBJECTS" xmlns="http://www.w3.org/2000/svg" xmlns:xlink="http://www.w3.org/1999/xlink" x="0px" y="0px"
	 viewBox="0 0 266.6 266.8" style="enable-background:new 0 0 266.6 266.8;" xml:space="preserve">
<style type="text/css">
	.st0{clip-path:url(#SVGID_2_);}
	.st1{fill:#FEFEFE;}
	.st2{fill:#1A1C24;}
	.st3{fill:#E3E6E6;}
	.st4{fill:#E3E6E7;}
	.st5{fill:#ADAEB6;}
	.st6{fill:#AEAEB6;}
	.st7{fill:#FBFCFC;}
	.st8{fill:#FAFBFC;}
	.st9{fill:#1C1E24;}
	.st10{fill:#FCFCFD;}
	.st11{fill:#1C1D24;}
	.st12{fill:#1B1D22;}
	.st13{fill:#1F1F29;}
	.st14{fill:#F8FAFB;}
	.st15{fill:#A0A0A1;}
	.st16{fill:#1B1E26;}
	.st17{fill:#1C1D23;}
	.st18{fill:#1E2127;}
	.st19{fill:#333339;}
	.st20{fill:#A1A1A2;}
	.st21{fill:#434246;}
	.st22{fill:#22242A;}
	.st23{fill:#17171B;}
	.st24{fill:#373739;}
	.st25{fill:#F5F7F8;}
	.st26{fill:#F8F9F8;}
	.st27{fill:#E0E1E0;}
	.st28{fill:#525252;}
	.st29{fill:#515151;}
	.st30{fill:#F9F9F9;}
	.st31{fill:#5A5A5A;}
	.st32{fill:#F8F9F9;}
	.st33{fill:#121214;}
	.st34{fill:#585858;}
	.st35{fill:#7A7B7A;}
	.st36{fill:#919191;}
	.st37{fill:#0F0E10;}
	.st38{fill:#202020;}
	.st39{fill:#8A8C8B;}
	.st40{fill:#DBDCDD;}
	.st41{fill:#A2A2A2;}
	.st42{fill:#2C2C32;}
	.st43{fill:#ACACAD;}
	.st44{fill:#2D2C31;}
	.st45{fill:#ADADAD;}
	.st46{fill:#80807F;}
	.st47{fill:#838482;}
	.st48{fill:#DADADA;}
	.st49{fill:#16161A;}
	.st50{fill:#494949;}
	.st51{fill:#545454;}
	.st52{fill:#464847;}
	.st53{fill:#3C3C43;}
	.st54{fill:#999999;}
	.st55{fill:#B1B1B1;}
	.st56{fill:#727272;}
	.st57{fill:#656565;}
	.st58{fill:#8F8F8F;}
	.st59{fill:#646464;}
	.st60{fill:#464646;}
	.st61{fill:#6A6A6A;}
	.st62{fill:#555555;}
	.st63{fill:#F4F4F4;}
	.st64{fill:#C1C1C1;}
	.st65{fill:#0E0D15;}
	.st66{fill:#B3B3B3;}
	.st67{fill:#F7F7F7;}
	.st68{fill:#ECEDEE;}
	.st69{fill:#747474;}
	.st70{fill:#767675;}
	.st71{fill:#515153;}
	.st72{fill:#909090;}
	.st73{fill:#929292;}
	.st74{fill:#E4E4E4;}
	.st75{fill:#D1D1D1;}
	.st76{fill:#0F0F1C;}
	.st77{fill:#E6E6E6;}
	.st78{fill:#676768;}
	.st79{fill:#B8B8B8;}
	.st80{fill:#DCDCDC;}
	.st81{fill:#F7F7F9;}
	.st82{fill:#0D0E14;}
	.st83{fill:#474747;}
	.st84{fill:#10101D;}
	.st85{fill:#393939;}
	.st86{fill:#5E5E5E;}
	.st87{fill:#202021;}
	.st88{fill:#686868;}
	.st89{fill:#848484;}
	.st90{fill:#13141B;}
	.st91{fill:#111114;}
	.st92{fill:#979798;}
	.st93{fill:#101017;}
	.st94{fill:#434443;}
	.st95{fill:#606262;}
	.st96{fill:#5E6060;}
	.st97{fill:#203221;}
	.st98{fill:#31442E;}
	.st99{fill:#213322;}
	.st100{fill:#0C0D14;}
	.st101{fill:#202127;}
	.st102{fill:#111218;}
	.st103{fill:#B1B2B9;}
	.st104{fill:#324530;}
	.st105{fill:#AEAEB7;}
	.st106{fill:#203023;}
	.st107{fill:#0B0C13;}
	.st108{fill:#191A21;}
	.st109{fill:#A5ABAE;}
	.st110{fill:#181A1F;}
	.st111{fill:#212126;}
	.st112{fill:#0D1018;}
	.st113{fill:#243327;}
	.st114{fill:#B8B8C2;}
	.st115{fill:#0F1017;}
	.st116{fill:#121319;}
	.st117{fill:#779747;}
	.st118{fill:#5F8D3F;}
	.st119{fill:#293826;}
	.st120{fill:#D5DBDB;}
	.st121{fill:#162419;}
	.st122{fill:#789646;}
	.st123{fill:#5E8B3E;}
	.st124{fill:#779748;}
	.st125{fill:#223425;}
	.st126{fill:#E2E5E4;}
	.st127{fill:#E6E8EC;}
	.st128{fill:#23351D;}
	.st129{fill:#192718;}
	.st130{fill:#DEE6D8;}
	.st131{fill:#20321F;}
	.st132{fill:#DDE1E3;}
	.st133{fill:#23351F;}
	.st134{fill:#253725;}
	.st135{fill:#D1D8D5;}
	.st136{fill:#243621;}
	.st137{fill:#233327;}
	.st138{fill:#29392D;}
	.st139{fill:#EFF1F5;}
	.st140{fill:#0F1116;}
	.st141{fill:#223227;}
	.st142{fill:#ADB3B4;}
	.st143{fill:#A9A9A9;}
	.st144{fill:#213020;}
	.st145{fill:#CDD6D4;}
	.st146{fill:#1E2421;}
	.st147{fill:#000010;}
	.st148{fill:#B7BF60;}
	.st149{fill:#171E19;}
	.st150{fill:#769647;}
	.st151{fill:#789648;}
	.st152{fill:#233320;}
	.st153{fill:#203013;}
	.st154{fill:#EFF6F2;}
	.st155{fill:#939F97;}
	.st156{fill:#253625;}
	.st157{fill:#E0E9DA;}
	.st158{fill:#B2B4BF;}
	.st159{fill:#5E8946;}
	.st160{fill:#223420;}
	.st161{fill:#24371F;}
	.st162{fill:#E4E7E8;}
	.st163{fill:#213121;}
	.st164{fill:#DCE2E0;}
	.st165{fill:#23371C;}
	.st166{fill:#5F8C3C;}
	.st167{fill:#AFBC63;}
	.st168{fill:#AFBF61;}
	.st169{fill:#B2BE61;}
	.st170{fill:#74944B;}
	.st171{fill:#799442;}
	.st172{fill:#759259;}
	.st173{fill:#25391A;}
	.st174{fill:#7B9B59;}
	.st175{fill:#B6BE5F;}
	.st176{fill:#779647;}
	.st177{fill:#608D3C;}
	.st178{fill:#B2BC64;}
	.st179{fill:#759351;}
	.st180{fill:#B5C468;}
	.st181{fill:#B4C168;}
	.st182{fill:#BCC668;}
	.st183{fill:#1D3019;}
	.st184{fill:#DDE1DF;}
	.st185{fill:#79965A;}
	.st186{fill:#5F8C3F;}
	.st187{fill:#152218;}
	.st188{fill:#DDE2E0;}
	.st189{fill:#E3ECE9;}
	.st190{fill:#62894E;}
	.st191{fill:#769546;}
	.st192{fill:#ADBD64;}
	.st193{fill:#7A9441;}
	.st194{fill:#B4C164;}
	.st195{fill:#7B9642;}
	.st196{fill:#B4C667;}
	.st197{fill:#7C9C55;}
	.st198{fill:#DFE2DD;}
	.st199{fill:#161E18;}
	.st200{fill:#22321F;}
	.st201{fill:#E4F2E1;}
	.st202{fill:#243421;}
	.st203{fill:#709849;}
</style>
<g>
	<defs>
		<circle id="SVGID_1_" cx="132.1" cy="132.7" r="127.8"/>
	</defs>
	<clipPath id="SVGID_2_">
		<use xlink:href="#SVGID_1_"  style="overflow:visible;"/>
	</clipPath>
	<g class="st0">
		<path class="st1" d="M329.4-137.1c114.9,0,229.9,0,344.8-0.1c4.4,0,5,1.1,5,5.1c-0.1,152-0.1,304.1,0,456.1c0,4-0.6,5.1-5,5.1
			c-229.9-0.1-459.8-0.1-689.7,0c-4.1,0-4.7-1-4.7-4.8c0.1-152.2,0.1-304.5,0-456.7c0-3.9,0.6-4.8,4.7-4.8
			C99.5-137.1,214.4-137.1,329.4-137.1z"/>
		<path class="st2" d="M73.1,203.2C64.9,199.9,57,196,51.1,189c-0.4-0.4-1.1-0.7-1.2-1.2c-1.6-9.9-9.7-12.2-17.3-15.5
			c-5.3-2.3-9.2-6.9-11.9-12.7c2-0.7,3.9-1.3,5.8-1.9c2.4-2.6,5.9-2.6,9-3.6c3.7-1.2,5.7-3.1,6.1-7.3c0.7-6.5,1.4-13,3.5-19.3
			c1.2-3.7,0.7-6.3-2.9-8.2c-1.9-1-3.4-2.5-4.1-4.7c-3.4-3.9-3.9-8.9-5.8-13.3c0.6-0.4,0.9-0.9,1.1-0.8c8.4,2.1,13.4-1.6,17.2-9.1
			c2.4-4.7,5.8-9.3,10.8-12.1c5.6,0.8,5.5-3.1,5.9-6.8c0.2-1.5,1.4-1.1,2.3-1.3c2.7,0.4,3.1-1.6,3.5-3.6c3.2-3.6-1.6-7.7,0.7-11.5
			c4.6,0.9,9,3.5,13.9,2.3c8.1,1.5,15.8,0.6,23.6-2.6c7.9-3.2,16.1-6.7,25.1-5.2c0.6,0.3,1,0.7,1.2,1.3c-0.3,0.4-0.3,0.8-0.1,0.7
			c4.8-0.8,9.7,0.5,14.5-1c1.1-0.4,2.2-0.9,3.4-1.2c2.4-0.3,4.9-0.9,6.7,1.6c-0.6,2-1.9,0.8-2.6,1.1c1.4,1.1,2.6-0.5,4-1.2
			c9.5,0.2,18.3,2.5,26.2,8c7.2,3.8,14.5,7.4,20.8,12.8c6.9,6,11.8,13.2,14.1,22.1c0.3,1.1,1.2,2.7-0.9,3.3
			c-2.9-0.4-5.2-2.3-7.8-3.4c-1.2-0.6-2.5-1.1-3.7-1.7c-5.9-3.3-12.6-4.6-18.9-6.6c-18.5-1.9-36.9-2.8-55.2,1.5
			c-2.6,0.6-5.3,1-7.7,2.4c-9.8,2.7-19.2,6.5-27.1,13.1c-4.4,2.1-7.2,6.2-11.4,8.6c-16.3,15.8-25,35-26.3,57.6
			c-0.8,10.3,0.9,19.9,8,28c1,1.1,1.6,2.6,1.5,4.3C74.7,202.8,74.3,203.6,73.1,203.2z"/>
		<path class="st2" d="M633.6,157.9c1,1.7,4.9-0.6,4.4,3.2c-0.2,2.9-1.8,4.8-4.3,5.9c-4.4,3.2-8.3,7.1-14,8
			c-0.3-0.2-0.7-0.3-1.1-0.4c-0.7-0.2-1.5,0.3-2.1-0.3c0.4,0.8,1.6,0.1,2.1,0.9c-3.9,0.8-5.8,3.1-6.8,7c-2.3,8.2-9,12.5-15.9,16.4
			c-3.2,1.8-6.5,3.2-9.8,4.7c-1.2,0.4-1.6-0.4-1.9-1.4c-0.1-1.6,0.5-3.1,1.5-4.3c7.2-8.1,8.9-17.8,8-28.2c0.2-4.2-0.8-8.3-1.7-12.3
			c-0.2-0.8-0.4-1.7-0.5-2.6c-3-14.8-10.1-27.5-20.2-38.5c-1.1-1.7-2.5-3.2-4.6-3.8c-4.2-1.6-6-5.7-9.3-8.3c-1.1-1.2-2.5-1.8-4-2.5
			c-5.6-3.9-11.7-6.9-18-9.5c-20.9-7.6-42.5-8.4-64.3-6.4c-3.9-1.4-7.8-1.1-11.8-0.1c-2.6,0.6,0.7,1.6-0.3,2.2
			c-3.6,2.4-7.4,4.3-12,4c-3.2-3.3-2.4-8.3-4.7-12c1.2-1.6,2.4-3.1,3.6-4.7c3.9-6,9.7-9.4,16.3-11.6l0,0
			c9.9-7.1,21.1-10.6,33.2-11.3c1.1,0.6,2.1,1.6,3.6,1.5c0.5,0,0.7,0.1,0.6-0.4c-1.2,0.2-2.6,0.9-2.6-1.3c2.1-2.2,4.6-1.6,7.1-1.3
			c6.1,1.2,12.2,1.1,18.4,0.1c2.2-0.3,4.4-0.7,6.2,1.3c0.2,0.9-0.1,1.4-1,1.5c-0.3,0-0.6-0.2-0.6-0.2c1.8,1.2,2.8-1.4,4.5-1.2
			c5.8-0.2,11.1,2,16.2,4.1c5.5,2.3,11,3.7,16.9,3.8c1.1,0.2,2.1,0.7,3.1,1.4c0-0.2,0.4,0.8,0.4-0.2c0-0.6-0.1,0.2-0.2-0.6
			c0.6-1.9,2.3-1.7,3.7-2.1c4.9,1.7,9-1.6,13.5-2.1c0.2,0.4,0.6,0.8,0.5,1c-2.6,7.4,0.9,11.9,6.7,15.9c3.5,2.4,6.2,6,9.3,9
			c3,1.9,5.3,4.5,6.2,8.1c0.6,1.2,0.9,2.7,2.2,3.5c1.8,0.5,1.7,2.3,2.5,3.5c0.7,3.3,2.7,4.2,5.9,3.7c2.4-0.4,4.9-0.3,7.8-0.4
			c0,5.6-3.9,9.5-5.6,14.1c-0.1,0.4-0.1,0.9-0.4,1.1c-8,4.6-7.5,11.4-4.9,18.9c1.2,3.3,1.2,6.9,1.1,10.4c0.2,2.4-0.8,4.9,1.2,7
			C622.9,154.4,628.6,155.2,633.6,157.9z"/>
		<path class="st3" d="M228.3,121.5c1.9,7.5,2.1,15.3,1.9,22.8c-0.3,12.5-2.3,24.8-7.1,36.6c-4.7,11.4-10.7,21.2-22.8,25.7
			c-0.9,0.5-1.5,0-1.9-0.7c-1-1.8-0.5-4.5-3.2-5.4c0.1-3.1,0.8-6.5-3.1-8.2c-5.5-7.4-5.3-13.3,0.5-20.3c3.2-2.9,7.2-3.1,11.3-3.1
			c2.9,0,3-2.1,3-4.2c0.7-5.9,1.4-11.8-0.1-17.8c0.4-5.4-1.4-10.7-1.1-16.1c0.5-5.3,4.2-6.2,8.6-6.3
			C219,124.4,224.2,125.6,228.3,121.5z"/>
		<path class="st4" d="M595.1,169.4c2.2,12.6-2.7,23-10.5,32.4c-0.3,1.3-1.4,2.2-1.8,3.5c-5.9,1.6-11.8,3.2-17.7,4.9
			c-0.3,0-0.6,0-0.8,0c-1.5-0.4-2.3-1.4-2.7-2.9c-0.4-3.4,0.3-7.5-5-7.8c-1.5-0.6-1.4-2.6-2.9-3.3c-1.1-0.7-2.4-1.1-3.4-2
			c-2.6-2.8-3.8-6.3-4.8-9.8c-0.2-4.9,1.3-9.1,5.6-12c2.3-1.1,5-0.6,7.2-2.1c1.5-0.2,3,0.2,4.6,0.3c0.5,0,1,0.2,1.5,0.3
			c1.9,0.7,3.3,0.5,3.8-1.8c0.5-2.4,1.2-4.8,1.8-7.2c0.4-1.1,0.9-2.1,1.6-2.9c0.4-0.4,1-0.6,1.5-0.8
			C581,160.5,589.5,162.1,595.1,169.4z"/>
		<path class="st4" d="M429.7,137.9c0.5-5.4-1.2-11,1.1-16.3c4.4,4.3,10.1,2.7,15.3,3c4,0.2,7.3,1,7.4,6c0.3,3.8-0.4,7.5-1.5,11.1
			c-1.5,8.1-1,16.3-0.3,24.4c1,3.4,1.6,6.9,2.4,10.4c0.3,1,0.6,2.1,0.9,3.1c0.5,1.4,0.8,2.9,1.4,4.2c0.4,0.9,0.8,1.8,1.2,2.6
			c0.4,0.9,0.8,1.8,1.2,2.7c0.6,1.6,1.6,3,2.5,4.5c0.9,2.1,2.8,3.7,2.7,6.2c-1.2,2.5-1.7,5.4-4,7.4c-0.8,0.1-1.6,0.2-2.2-0.4
			c-16.1-7.7-21.7-22.5-25.5-38.4c-1.3-5.4-3.3-10.7-2.4-16.4C431.1,147.2,429.1,142.6,429.7,137.9z"/>
		<path class="st4" d="M74.5,201.8c-7.8-9.4-12.7-19.8-10.5-32.4c6.2-7.2,14.3-10.3,23.5-11.3c2,1,2.1,3.1,2.5,4.9
			c1.5,7.8,3.9,15.3,7.5,22.4c1.7,5.6,5.8,9.7,8.9,14.3c1.1,1.5,2.3,2.7,3.7,3.9c2.4,2.1,5.1,3.8,7.5,5.8c1.5,1.6,1.9,3.1-0.7,4
			c-4,0.9-7.9-1-11.8-0.8c-0.9-0.1-1.8-0.2-2.7-0.4c-2.4-1-5.1-0.4-7.5-1.5c-0.5-0.3-0.9-0.6-1-1.2c-0.1-0.7,0.5-0.9,1-1.2
			c-0.9,0-1.1,0.7-1.4,1.3c-0.3,0.5-0.7,0.7-1.2,0.9c-4.5-1.1-9.2-1.4-13.2-4.1c-0.9-0.5-1.8-0.9-2.7-1.4
			C75.9,204,74.8,203.1,74.5,201.8z"/>
		<path class="st5" d="M452,131.1c0.2-3.7-1.5-5.1-5.2-4.8c-3.6,0.3-7.4-0.2-11,0.1c-3.7,0.3-5.5-1-5-4.8c1.6-7.7,3.2-15.5,4.9-23.2
			c1.7-5.8,6.8-6.4,11.6-7.3c3.9-1.4,7.9-2.9,11.8-4.3c1.7-2.4,4.4-1.4,6.6-2.2c3.8,0.3,3.2,2.6,2,4.8c-2.4,4.3-4,9.1-6.3,13.4
			c-1,1.9-1.6,4-2.2,6.1c-0.1,0.5-0.3,1.1-0.5,1.6c-0.5,1.3-0.8,2.7-1.2,4.1c-1,4.2-2.2,8.4-2.8,12.8
			C454.3,128.8,454.4,130.7,452,131.1z"/>
		<path class="st6" d="M228.3,121.5c0.4,3.7-1.1,5.1-4.9,4.9c-3.6-0.3-7.3,0.1-10.9-0.1c-3.6-0.2-5.5,1.1-5.4,4.8
			c-1.8-0.1-2.2-1.5-2.3-2.9c-0.7-6.6-3.2-12.7-4.3-19.2c0.4-3.2,1.2-6.5-2.8-8.3c-3.4-3.6-4.6-8.4-6.7-12.7
			c-1.5-3.1,0.7-3.6,3.3-2.6c6.4,2.1,13.2,3,18.9,6.9c0.7,1.4,1.8,1.6,3.2,1.5c2.4,1.5,4.7,2.9,7.1,4.4c-2,1.4-0.3,2.7,0.2,4
			C225.8,108.5,227,115,228.3,121.5z"/>
		<path class="st7" d="M566.1,61.1c-6.4,1.1-12.1-0.9-17.8-3.4c-5.5-2.4-11.1-4.4-17.2-4.7c-0.7,0.4-1.4,0.7-1.9-0.3
			c-2-1.1-4.1-1.1-6.3-0.9c-6.2,0.1-12.4,0.1-18.6,0c-2.5-0.2-4.9-0.2-7.2,1c-0.3,0.5-0.6,0.6-1,0.1c-12,1.3-22.8,6-33.8,10.4
			c-2-1.5-4-3.7-5.1-5.4c-2.5-3.8,2.2-3,4.1-4c1.5-1.7,3.6-1.9,5.6-2.1c0.5-0.5,1-0.9,1.5-1.4c2.2-0.6,4.2-2,6.5-2.3
			c2.6-0.1,5.1-0.8,7.5-1.6c2,0.2,3.7-1.6,5.8-0.7c0.7-0.4,1.4-0.8,2.1-1.2c4.2,0,8.3-0.8,12.5-1.1c6.2,0,12.3,0,18.5,0
			c2.7,0,5.3,0.9,8,0.6c3.3,1.3,7.2,0.4,10.1,2.9c0.8-0.4,1.6-0.7,2.4-1.1c1.6,2,4.3,1.5,6.3,2.6c1.7,0.7,3.6,0.8,5.1,2
			c0.9,0,1.7,0.1,2.6,0.1c1.9,1.8,4.6,1.8,6.7,3c1.4,0.9,3,1.7,4.6,2.3c1.2,0.7,2.4,1.6,3.9,1.6c0.3,0.3,0.6,0.6,0.9,0.9
			c-0.2,2.5-2.9,1.1-3.8,2.4C567.5,61.8,566.8,61.6,566.1,61.1z"/>
		<path class="st8" d="M137.3,51.7c-11.4,0.2-21.8,3.8-32.1,8.2c-5,2.2-13.1,1.6-17.5-1.4c0,0,0.4,0.2,0.4,0.2
			c0.9-1.8,2.7-2.4,4.4-3.2c1.6-0.9,3.2-1.7,5-2.2c1.5-1.1,3.4-1.2,5.1-1.7c2.6-1.2,5.2-2.3,7.8-3.5c2.4-0.2,4.7-0.7,7-1.1
			c0.4-0.4,0.7-0.9,1.1-1.3c3.9,0.1,7.6-1,11.4-1.7c2.3,0.2,4.5-0.4,6.8-0.6c6.6,0,13.2,0,19.7,0c2.3,0.2,4.6,0.8,7,0.6
			c3.2,1.3,7.1,0.3,10,2.9c0.8-0.4,1.5-0.8,2.3-1.2c2.4,1.8,5.4,1.6,8,2.8c1.7-0.4,3.2,1.6,5,0.7c0.9,0.4,2.1,1.8,1.6,2
			c-5.8,2.7-0.4,5.9-0.6,8.7c-8.9-2.6-17.4-6.3-26.7-7.1c-0.4,0.4-0.7,0.4-1-0.1c-2.3-1.3-4.7-1.2-7.2-1
			C148.9,52.7,143.1,52.7,137.3,51.7z"/>
		<path class="st7" d="M633.6,157.9c-6.2-0.5-11.8-3-17.6-4.9c-1-2.8,0.2-5.9-0.9-8.8c0.3-5.5-1.1-10.8-2.6-16
			c-1.2-4.1-2.5-7.4,2.8-9.8c1.8-0.8,3.1-3.2,5.4-3.9c0.9,0.4,1.2,1.1,1.3,2c0.2,1.8,0.9,3.4,2.2,4.7c1.2,1.6,3,3.2,4.4,4.1
			c4.5,2.9,1.3,4-0.6,5.6c-0.7-0.1-1.3-0.4-1.6-1.1c-0.1,0.1,0-0.7-0.1,0c0,0.3,0.2,0.7,0.3,1c0.7,1.4,0.5,3,1.1,4.5
			c0.7,1.5,0.6,3.2,1.1,4.7c1.1,3.1-0.1,6.7,2.5,9.4C631.6,152.5,629.6,156,633.6,157.9z"/>
		<path class="st9" d="M495,218.2c-10.5-1-20.5-4.4-30.3-8c-0.7-0.9-0.7-1.8-0.1-2.7c1.4-1.1,3-1.2,4.7-1.1
			c8.6,1.6,17.1,3.4,25.9,3.4c1,0.1,2,0.2,2.9,0.6c9.2,1,18.4,0.4,27.6,0.3c4.8,0,9.6,0.1,14.4,0.4c2.2-0.1,4.5-0.2,6.7-0.4
			c1.8-0.3,3.7-0.9,5.4,0.2c-0.5,2.9-0.5,2.9-3.9,3.1c1.5,0.5,3-0.4,4.1,0.9c-2.1,3.5-5.8,0.3-8.4,1.9c-1.6,0.4-3.2,0.8-4.7,1.2
			c-1.8-0.8-3.5-0.2-5.3-0.2c-0.8,0.3,0.5,0.9,0.1,0.2c-0.1-0.2,0-0.4,0.4-0.3c0.9,0,1.9-0.2,2.6,0.6c-13.4,2.8-26.7,2.7-40.1,0.1
			c0.9-1.1,2-0.8,2.3-0.7C498.5,218,496.7,217.3,495,218.2z"/>
		<path class="st10" d="M38.2,114.8c2.9,2.1,5.8,4.2,8.9,6.2c2,1.3,0.8,2.8,0.4,4.1c-2.5,8-3.8,16.1-4.3,24.4
			c-0.1,2.1-0.4,3.7-2.7,4.4c-4.6,1.4-8.9,3.6-13.8,3.9c-4.8-3.3-4.8-3.6,1.2-7c1.3-1.5,1.1-3.4,1.7-5.1c-0.1-1.9,0.5-3.7,0.8-5.6
			c0.5-1.9,0.6-3.8,1.5-5.6c0.1-1.7,0.5-3.3,1.8-4.6c0-1.6,0.1-3.3,0.1-4.9c1.5-1.5,1.8-3.8,3.3-5.3
			C36.9,117.8,37.3,116.2,38.2,114.8z"/>
		<path class="st11" d="M104.6,211.4c4.3,0.4,8.6,0.8,12.8,1.2c1.5,0.5,2.9-0.6,4.4-0.5c3.7,0.1,7.4-0.5,11,0.5
			c0.5,0.2,0.9,0.6,1.2,1.1c-0.1,0.6-0.3,1-0.8,1.3c0.6-0.3,1-0.8,1.5-1.1c2.8-1.2,5.9-0.4,8.7-1.5c6.7,0,13.3-1.1,20-0.9
			c3.8,0.1,7.5-2.8,11.7-1.2c1.8,1,3.6,2.1,2.8,4.7c-2.8,1.6-5.9,2.1-9,2.3c-3.4,1.9-7.1-2.9-10.5,0.3c-0.3,0.4-0.6,0.8-1,1.2
			c-0.6,0.6-1.3,1-2.1,1.2c-1.1,0.1-2.3,0.1-3.4-0.2c-2.4-0.7-4.8,0-7.1,0.3c-4-0.2-8,0.5-11.9-0.5c-1.7,0.6-3.5,0.2-5.2-0.2
			c-0.6-0.4-1.3-0.6-2-0.9c-1.7,0.1-3.3-1.1-5-0.2c-4.7-0.1-9.2-2.1-14-1.1c-1.3-1.1-2.6-0.4-3.7,0.1c-4.2,2-6.3,0.1-7.6-3.6
			c-0.9-0.8-1.8-1.5-2.7-2.3c-0.4-0.3-0.5-0.5-0.4-0.8c0.1-0.2,0.3-0.4,0.4-0.4l0,0c0.3-0.5,0.6-0.7,1.2-0.4
			c2.8,0.4,5.8,0.1,8.5,1.3c-0.4,0.8-1.2,0.6-1.8,0.8C102.1,211.8,103.5,212.3,104.6,211.4z"/>
		<path class="st12" d="M447.2,91c-3.6,2.8-8.6,3.5-11.6,7.3c-3-0.9-1.4-3.2-1-4.4c1.9-5.1,3.8-10.3,7.7-14.3
			C447.8,81.8,445.2,87.4,447.2,91z"/>
		<path class="st13" d="M544,217c2.3-2.3,5.9,0.5,8.1-2.1c2.4-3.7,6.5-5.1,8.9-2.8c2.8,2.8,2.1,5.8-0.7,8.4
			c-3.5-0.5-6.6-3.2-10.4-2.3l0.1,0.1C548.4,215.6,545.9,217.8,544,217z"/>
		<path class="st7" d="M462.4,63.3c-5.4,3.9-10.9,7.7-16.3,11.6c-1.9-4.3,3.6-4.6,4.1-7.3c0.7-4.3,3-4.6,6.5-3.9
			C458.4,64.1,460.4,63.5,462.4,63.3z"/>
		<path class="st14" d="M93,210.2c0,0.4,0,0.8,0,1.2c-3.5,2-7.4,0.9-11,0.9c-2.9,0-4.8-2.2-2.9-5.6C84,206.6,88.4,208.8,93,210.2z"
			/>
		<path class="st15" d="M157.2,44.5c-7.1,0-14.2,0-21.2-0.1c-0.6-0.6-1.8,0-2.3-1.1c8.7-1.8,17.4-1.7,26.1-0.1
			C159.2,44.5,157.9,43.8,157.2,44.5z"/>
		<path class="st16" d="M178.1,215c-0.8-1.2-1.6-2.5-2.4-3.7c2.9-4.7,7.4-3.6,11.8-3.2c1.4,0.8,2.1,1.8,1.1,3.4
			C185.4,213.7,181.8,214.5,178.1,215z"/>
		<path class="st17" d="M67.3,72.6c2.3,2.6,1.3,5.5-0.4,7.5c-1,1.2-4,2.7-5.5-0.6C62,76,65.1,74.7,67.3,72.6z"/>
		<path class="st18" d="M560.3,220.5c0.3-2.5,2.8-5.4,0.1-7.4c-2.8-2-5.8-0.3-8.3,1.7c-1.5,0-2.9,0-5,0c1.5-2,4.9-0.2,4.9-3.3
			c4-2.6,8.4-2.8,12.8-1.4l0.1,0c-0.5,0.8-1,1.6-1.4,2.4c-1.4,2.4,1.3,6-2.1,7.9C561,220.4,560.7,220.5,560.3,220.5z"/>
		<path class="st19" d="M139.6-28.5c8.6-0.8,17.3-0.4,26.5,0.2c-2.3,2-4.4,2.2-6.7,1.7c-5.2-0.8-10.4-0.1-15.5-0.5
			C142.4-27.1,140.2-25.9,139.6-28.5z"/>
		<path class="st20" d="M522,44.5c-6.7,0-13.4,0-20,0c-0.7-0.7-2-0.1-2.6-1.2c2.3-1.4,4.9-1,7.4-0.8c4.2,0.7,8.4,0.7,12.6,0
			c2.1-0.2,4.2-0.5,6.1,0.8C524.6,44.7,523,43.6,522,44.5z"/>
		<path class="st21" d="M517.1-28.6c3.2-0.3,6.5-0.4,9.6,0.9c-1.3,1.5-3.3,0.1-4.8,1.1c-7.4,0-14.8,0-22.2,0
			c-0.1-1.4,0.9-1.5,1.9-1.5C506.7-28.4,511.9-27.6,517.1-28.6z"/>
		<path class="st22" d="M188.6,211.5c-0.1-1-0.2-2-1.2-2.5c-0.3-1.1,0.4-1.7,1.2-2.1c3.4-1,6.7-2.6,10.4-1.3
			c0.4,0.4,0.8,0.7,1.2,1.1C196.9,209.6,193,211.2,188.6,211.5z"/>
		<path class="st23" d="M95.7,213.6c2.8,4.3,7.7,1.9,11.3,3.5c-3.5,1.1-6.9,2.2-10.9,3.4C95.9,218.1,95.8,215.8,95.7,213.6z"/>
		<path class="st24" d="M139.6-28.5c4,2.1,8.3,0.5,12.5,1c2.4,0.3,5-0.8,7.3,1c-7.4,0-14.7,0-22.1,0c-0.7-0.7-0.7-1.3,0-2
			C138-28.5,138.8-28.5,139.6-28.5z"/>
		<path class="st25" d="M608,90.2c-2.1-2.7-4.1-5.4-6.2-8.1C606.5,81.2,609.2,84.6,608,90.2z"/>
		<path class="st26" d="M633.7,167.1c1.4-2,2.9-3.9,4.3-5.9c1.3-0.3,3.3-0.7,2.5,1.5C639.5,165.5,638.1,168.8,633.7,167.1z"/>
		<path class="st27" d="M429.7,137.9c1.9,4.7,1.9,9.3,0,14C430,147.2,426.7,142.6,429.7,137.9z"/>
		<path class="st28" d="M179.1-26.2c2.6,0.4,5.2,0.8,7.8,1.3c0,0.5-0.1,1.1-0.1,1.6c-3.8,0.5-7.6-0.6-11.3-1.8
			C176.4-26.4,178.1-25.3,179.1-26.2z"/>
		<path class="st29" d="M483.6-25c-3.7,1.2-7.4,2.2-13.1,1.4c4-2,6.7-2.4,9.4-2.5C481-25.3,482.7-26.4,483.6-25z"/>
		<path class="st16" d="M157.1,217.2c1.3-3.9,4.3-2.5,6.6-1.7c1.8,0.7,3.3,1.8,5.3,1.8c-1.5,1.1-3.2,1.1-5,0.9
			C161.7,217.9,159.2,219.1,157.1,217.2z"/>
		<ellipse class="st30" cx="514.3" cy="40.7" rx="10.5" ry="0.4"/>
		<path class="st31" d="M539.2-26.1c2.5,0.4,5.1,0.9,7.6,1.3c-0.1,0.6-0.1,1.1-0.2,1.7c-3.4,0.3-6.7-0.6-10-1.8
			C537.1-26.2,538.4-25.5,539.2-26.1z"/>
		<path class="st32" d="M549.9,218.1c-0.3,1,3.1,2.1,0.2,2.8c-3.1,0.7-6.3,0.6-9.6,0.2C543.6,220.2,546.8,219.2,549.9,218.1
			C550,218.2,549.9,218.1,549.9,218.1z"/>
		<path class="st33" d="M179.1-26.2c-1.2,0.4-2.4,0.8-3.6,1.1c-2.3-0.2-4.8,0.1-6.9-1.8C172.2-28,175.6-26.5,179.1-26.2z"/>
		<path class="st34" d="M122.4-25c-3.2,1.1-6.4,2.3-10,0c2.5-0.4,5-0.8,7.5-1.2C120.7-25.5,122-26.2,122.4-25z"/>
		<path class="st35" d="M129.1,44.8c-3.5,0.9-6.9,2.8-10.7,1c3.4-1.4,7-1.8,10.6-2.1c0.4,0.2,0.5,0.5,0.4,0.7
			C129.4,44.7,129.3,44.8,129.1,44.8z"/>
		<path class="st36" d="M499.4,43.3c0.9,0.4,1.7,0.8,2.6,1.2c-3.9-0.7-7.7,2.5-11.6,0.2C493.1,42.9,496.3,43.6,499.4,43.3z"/>
		<path class="st37" d="M517.1-28.6c-5.3,1.9-10.8,0.4-16.1,0.9c-0.5-0.2-0.6-0.3-0.5-0.5c0.1-0.2,0.3-0.3,0.4-0.3
			C506.3-28.5,511.7-28.6,517.1-28.6z"/>
		<path class="st16" d="M133.1,219.6c4.6-0.1,9.3-0.2,13.9-0.3c1.1-0.4,2.2-0.4,3.3,0.1c0.3,0.6,0.1,1-0.5,1.2
			C144.2,219.9,138.6,221.3,133.1,219.6z"/>
		<path class="st38" d="M539.2-26.1c-0.8,0.4-1.7,0.8-2.5,1.2c-2.7-0.4-5.6,0.1-8.1-1.2c0.2-0.7,0.9-0.8,1.4-1.1
			C533-27,536.1-26.6,539.2-26.1z"/>
		<path class="st17" d="M73.1,67.8c0.2,1.3,3.2,1.7,1.3,3.5c-1.3,1.2-3.1,2.3-4.8,0.1C70.6,70,71.3,68.3,73.1,67.8z"/>
		<path class="st39" d="M539.4,47.1c-3.2-0.7-6.3-1.4-9.5-2.1c-0.4-0.3-0.5-0.6-0.4-0.8c0.1-0.3,0.2-0.4,0.4-0.4
			C533.2,44.5,537.4,42.8,539.4,47.1z"/>
		<path class="st40" d="M631.3,149.5c-3.6-2.2-1.9-6.3-3.4-9.3c0.4-0.4,0.5-1.1,1.2-1.2C631.2,142.2,629.6,146.2,631.3,149.5z"/>
		<path class="st41" d="M173.4,47c-3.2-0.7-6.4-1.4-9.6-2.1c0.1-0.8,0.9-0.8,1.4-1.2C167.8,45.1,172,42.6,173.4,47z"/>
		<path d="M464.7,208c0,0.7,0,1.5,0,2.2c-3,0.2-5-1.8-7-3.6c0.8-0.1,1.6-0.1,2.3-0.2C462.1,205.4,463.8,205.6,464.7,208z"/>
		<path class="st42" d="M500.9-28.5c0,0.3,0,0.6,0.1,0.8c-0.4,0.4-0.8,0.7-1.3,1.1c-2,0.2-4.2,0.9-5.6-1.9
			C496.4-28.5,498.7-28.5,500.9-28.5z"/>
		<path class="st7" d="M449.6,59.9c-1.3,3.4-4.3,3-7.3,3.5c0.9-2,2.5-2.7,3.8-3.6C447.2,61,448.4,58.8,449.6,59.9z"/>
		<path class="st36" d="M519.4,42.6c-4.2,1.5-8.4,1.5-12.6,0C511,42.5,515.2,42.6,519.4,42.6z"/>
		<path class="st43" d="M183.9,49.2c-2.7-1.2-6.5,0.2-8.3-3.4c2.9,0.2,5.7,0.7,8.3,2.2c0.4,0.3,0.5,0.5,0.4,0.8
			C184.2,49.1,184,49.2,183.9,49.2z"/>
		<path class="st29" d="M556.7-21.6c-3.9,1.1-5.9,0-9.1-1.3C551.4-24.3,553.4-23,556.7-21.6z"/>
		<path class="st44" d="M137.3-28.5c0,0.7,0,1.3,0,2c-1.8,0.1-3.6,0.3-5.4,0.4c-1.4,0-3.3,1.5-3.8-1.2
			C131.1-27.8,134.2-28.2,137.3-28.5z"/>
		<path class="st45" d="M482.2,47.3c-2.1,1.4-4.7,1.5-7.1,1.9c-0.4-0.3-0.6-0.7-0.6-1.1c0.1-0.5,0.4-0.8,0.8-0.9
			c2.3-0.4,4.6-0.8,6.8-1.2c0.4,0.3,0.5,0.6,0.4,0.8C482.5,47.1,482.4,47.3,482.2,47.3z"/>
		<path class="st46" d="M117.4,47.1c-2.2,1.3-4.4,2.4-7,1.1C112.5,46.6,114.8,45.8,117.4,47.1z"/>
		<path class="st28" d="M102-21.8c3.6-1.2,5.5-2,7.7-1C107.8-21.7,106-20.4,102-21.8z"/>
		<path class="st47" d="M547.5,49.2c-1.7-1.5-5.3,0.6-5.7-3.2c2.4,0.5,4.9,0.7,7,2.1C548.7,48.8,548,48.8,547.5,49.2z"/>
		<path class="st48" d="M208.3,58.7c-2.1,0-4.1-0.3-5.6-2.6c2.5-1,3.9,0.9,5.6,1.5c0.3,0.2,0.5,0.5,0.3,0.7
			C208.6,58.6,208.5,58.7,208.3,58.7z"/>
		<path class="st49" d="M484.1-26.6c2-0.9,4.1-1.4,6.7-0.4c-1.5,2.2-3.4,1.6-5.1,1.6C485.1-25.8,484.4-25.8,484.1-26.6z"/>
		<path class="st50" d="M466.1-21.6c-2.1,1.3-4.4,1.7-7.4,2c1.7-2.8,4.1-2.4,6.1-3.1C465.3-22.3,466-22.3,466.1-21.6z"/>
		<path class="st51" d="M94.4-17.7c2.3-3.3,4.4-3.3,6.4-3.5c0.1,0,0.4,0.9,0.6,1.4C99.5-19.2,97.6-18.7,94.4-17.7z"/>
		<path class="st52" d="M92.9,55.9c-1.6,1-3.2,1.9-4.8,2.9c-0.8-3.5,1.8-3.2,3.9-3.5C92.6,55,92.9,55.2,92.9,55.9z"/>
		<path class="st53" d="M561.4,220.4c2.1-2.3-0.1-5.7,2.1-7.9C562.6,215.1,565.6,218.7,561.4,220.4z"/>
		<path class="st54" d="M475.2,48.1c0,0.4,0,0.7,0,1.1c-2.2,0.6-4.4,1.8-6.8,1.3c1.1-0.8,2.2-1.6,3.3-2.4
			C472.9,47.2,474,47.3,475.2,48.1z"/>
		<path class="st55" d="M36.9,119.5c-0.6,2.1-0.6,4.5-3.3,5.3C34.5,122.9,33.5,119.9,36.9,119.5z"/>
		<path class="st56" d="M451.9-17.9c1.8-1.8,3.3-2.5,6.2-0.7C455.6-18.2,454.3-17,451.9-17.9z"/>
		<path class="st48" d="M31.2,140.2c-0.4,2-0.8,3.9-1.1,5.9c-0.4,0.4-0.8,0.4-1.1,0c0.3-2.4-0.8-5,1.1-7.1
			C30.7,139.1,30.8,139.8,31.2,140.2z"/>
		<path class="st57" d="M82-12.7c1.7-3.6,4.1-3.2,6-3.9C87.1-13.9,84.8-14.1,82-12.7z"/>
		<path class="st58" d="M209.8-16.6c3.4,0,5.1,0.5,6.4,2.5C214-13.7,212.5-14.4,209.8-16.6z"/>
		<path class="st59" d="M575.1-13.6c-1.8-0.7-3.6-1.5-5.3-2.2C572.2-17.1,573.9-16,575.1-13.6z"/>
		<path class="st7" d="M475.2,48.1c-1.2,0-2.3,0-3.5,0c0.1-1.2-0.3-2.7,1.4-3.2c2.1-0.7,1,2,2.3,2.3
			C475.3,47.5,475.2,47.8,475.2,48.1z"/>
		<path class="st60" d="M92.9,55.9c-0.2-0.3-0.5-0.5-0.9-0.6c1.4-2,3.5-2.3,5.7-2.2c0,0.2-0.1,0.5-0.1,0.7
			C96,54.4,94.5,55.1,92.9,55.9z"/>
		<path class="st51" d="M557.3-20.5c2.2-1.4,3.7,0,7,0.7C560.4-18.2,558.9-19.6,557.3-20.5z"/>
		<path class="st61" d="M562.6,54.1c-2.6-0.4-5.4-0.6-6.8-3.5c2.6,0.1,4.7,1.3,6.9,2.6c0.3,0.2,0.4,0.4,0.2,0.6
			C562.8,54,562.7,54.1,562.6,54.1z"/>
		<path class="st62" d="M194.3-22.7c2.1,0.5,4.3,0.6,6,2c-0.1,0.7-0.8,0.7-1.2,1c-2.1-0.6-4.3-0.5-6.1-1.9
			C193.1-22.3,193.8-22.4,194.3-22.7z"/>
		<path class="st38" d="M194.3-22.7c-0.4,0.4-0.9,0.8-1.3,1.2c-1.4-0.3-3,0.1-4.3-1.5C190.8-24.7,192.5-22.6,194.3-22.7z"/>
		<path class="st63" d="M212.9,59.9c1.1,0.6,2.6,0.7,3,2.3c0.1,0.2-0.6,0.9-1,1c-1.6,0.2-2.4-0.9-3-2.1
			C212.1,60.5,212.4,60.1,212.9,59.9z"/>
		<path class="st64" d="M466.9,51.9c-1.6,1.3-3.6,1.7-5.6,2.1C462.2,50.8,464.3,50.6,466.9,51.9z"/>
		<path class="st65" d="M529.9-27.4c-0.5,0.4-0.9,0.8-1.4,1.1c-2.2-0.1-4.4-0.2-6.6-0.4c1.4-1.3,3.3-0.4,4.8-1.1
			C527.8-27.6,528.9-27.5,529.9-27.4z"/>
		<path class="st66" d="M620.1,13.6c2.7,0,3.2,1.7,3.9,3.2C622.1,16.6,621.1,15.4,620.1,13.6z"/>
		<path class="st67" d="M615.4,15.2c-1.9-0.8-1.7-2.3-1.8-4.1C615.4,12.2,616.1,13.2,615.4,15.2z"/>
		<path class="st68" d="M149.7,220.5c0.2-0.3,0.4-0.6,0.6-0.8c0.6-0.9,1.3-0.8,2-0.1c1.2-0.1,2.3-0.1,3.5-0.2
			c0.8-0.4,1.7-0.6,2.3,0.3C155.6,221.6,152.6,220.6,149.7,220.5z"/>
		<path class="st69" d="M444.2-14.2c2.6-2.9,4.4-3.4,7.3-3.8C449.6-15.3,447.5-15.4,444.2-14.2z"/>
		<path class="st70" d="M547.5,49.2c0.4-0.4,0.9-0.8,1.3-1.1c1.9,0.1,3.7,0.2,4.4,2.5C551.1,50.9,549.4,49.5,547.5,49.2z"/>
		<path class="st71" d="M128-27.4c1,1.3,2.6,0.7,3.8,1.2c-1.6,0.7-3.3,1.1-5.1,0.8c-0.7-0.7-2,0-2.5-1.2
			C125.3-27.6,126.6-27.6,128-27.4z"/>
		<path class="st66" d="M624.2,121.3c-3.3-0.4-2.6-2.6-2.2-4.7C623.6,117.7,623.8,119.6,624.2,121.3z"/>
		<path class="st72" d="M165.2,43.7c-0.5,0.4-0.9,0.8-1.4,1.2c-2.2-0.1-4.4-0.3-6.7-0.4c0.9-0.4,1.7-0.8,2.6-1.2
			C161.5,43.4,163.3,43.6,165.2,43.7z"/>
		<path class="st73" d="M482.2,47.3c0-0.4,0-0.9,0-1.3c2,0.2,3.9-2.8,6-0.1C486.4,47,484.3,47.1,482.2,47.3z"/>
		<path class="st74" d="M28.9,146.1c0.4,0,0.8,0,1.1,0c0.1,2-0.2,3.8-2.3,4.6C27.9,149.1,27.2,147.3,28.9,146.1z"/>
		<path class="st75" d="M31.2,140.2c-0.4-0.4-0.8-0.8-1.2-1.2c0.2-1.6-0.4-3.3,1.1-4.6c0.4-0.5,0.8-0.5,1.2,0
			C31.9,136.3,31.5,138.3,31.2,140.2z"/>
		<path class="st76" d="M157.1,217.2c2.3,0.3,4.8-0.8,6.9,1c-0.9,0-1.1,1.7-2.3,1c-1.5-0.6-3.2,0.4-4.6-0.8
			C157.1,217.9,157.1,217.5,157.1,217.2z"/>
		<path class="st38" d="M466.1-21.6c-0.4-0.4-0.9-0.7-1.3-1.1c0.4-0.1,0.7-0.3,1.1-0.3c1.2,0.1,3-2,3.4-0.1
			C469.7-20.9,467.3-22,466.1-21.6z"/>
		<path class="st77" d="M449.6,59.9c-1.2,0.2-2.4,1.8-3.5-0.1c1.5-0.2,2.1-2.6,3.9-1.7C450.9,58.6,450.3,59.4,449.6,59.9z"/>
		<path class="st78" d="M529.9,43.7c0,0.4,0,0.8,0,1.3c-2.7-0.1-5.3-0.3-8-0.4c0.9-1.2,2.4-0.6,3.5-1.1
			C527,43.5,528.4,43.6,529.9,43.7z"/>
		<path class="st79" d="M32.3,134.4c-0.4,0-0.8,0-1.2,0c0.4-1.8-0.7-4.4,2.5-4.6C33.1,131.3,32.7,132.8,32.3,134.4z"/>
		<path class="st80" d="M212.9,59.9c-0.4,0.4-0.7,0.7-1.1,1.1c-1.2-0.8-2.3-1.5-3.5-2.3c0-0.4,0-0.7,0-1.1
			C209.9,58.4,211.4,59.1,212.9,59.9z"/>
		<path class="st81" d="M499.6,221.6c-1.5,0-2.9,0-4.5,0C496.5,219.7,498.1,221.3,499.6,221.6z"/>
		<path class="st75" d="M629.1,139c-0.4,0.4-0.8,0.8-1.2,1.2c-0.4-1.6-0.7-3.2-1.1-4.7c0.4-0.4,0.4-1.1,1.2-1.2
			C629.4,135.6,629,137.4,629.1,139z"/>
		<path class="st82" d="M537.1,218.4c-1.2-0.1-2.5-0.3-4.7-0.6c3-0.9,5-1.2,6.8,0.3C538.5,218.2,537.8,218.3,537.1,218.4z"/>
		<path class="st61" d="M129.1,44.8c0-0.4,0-0.7,0-1.1c1.5-0.1,3-0.2,4.5-0.3c0.8,0.4,1.5,0.7,2.3,1.1
			C133.7,44.6,131.4,44.7,129.1,44.8z"/>
		<path class="st83" d="M562.6,54.1c0.2-0.3,0.2-0.6,0.1-0.9c1.5,0.8,3.1,1.7,4.6,2.5l0.1,0.2C565.4,56.1,563.9,55.4,562.6,54.1z"/>
		<path class="st84" d="M495,218.2c1.8-1.6,3.8-1.3,6.7-0.3c-2.1,0.3-3.4,0.4-4.7,0.6C496.3,218.4,495.7,218.3,495,218.2z"/>
		<path class="st64" d="M628,134.3c-0.4,0.4-0.8,0.8-1.2,1.2c-0.4-1.6-0.7-3.1-1.1-4.7c0.2-0.5,0.5-0.9,1-1.1
			c0.4,0.4,0.8,0.8,1.2,1.2C628,132,628,133.1,628,134.3z"/>
		<path class="st85" d="M199.1-19.6c0.4-0.3,0.8-0.7,1.2-1c1.5,0.5,3,0.9,4.5,1.4c0.4,0.2,0.5,0.5,0.4,0.7c-0.1,0.3-0.2,0.4-0.3,0.4
			C202.9-18.6,201-19.1,199.1-19.6z"/>
		<path class="st86" d="M204.8-18.1c0-0.4,0-0.7,0-1.1c1.6,0.5,3.1,1,4.7,1.5C207.6-16.5,206.1-16.8,204.8-18.1z"/>
		<path class="st87" d="M124.1-26.6c0.8,0.4,1.7,0.8,2.5,1.2c-1.4,0.1-2.8,0.3-4.3,0.4c-0.8-0.4-1.7-0.8-2.5-1.1
			C121.3-26.3,122.7-26.5,124.1-26.6z"/>
		<path class="st69" d="M581.6-10.8c1.8-1.2,3.4-0.7,3.6,0.2c0.5,2.2-1,1.2-1.9,0.8C582.8-10,582.3-10.3,581.6-10.8z"/>
		<path class="st88" d="M97.6,53.7c-0.1-0.2-0.1-0.5,0.1-0.7c1.4-1.5,2.8-2.6,4.9-1.3C101.2,53.1,99.4,53.5,97.6,53.7z"/>
		<path class="st89" d="M62.7-2.6c-0.6,0.3-1,0-1.2-0.6c-0.2-1,0.6-1.3,1.3-1.4c0.4-0.1,1.1,0.3,1.2,0.7C64.3-2.9,63.2-3,62.7-2.6z"
			/>
		<path class="st90" d="M618.5,175.2c-1.1,0-2.2,0-3.3,0c1.5-1,3-1.7,4.5-0.2C619.3,175.1,618.9,175.1,618.5,175.2z"/>
		<path class="st91" d="M484.1-26.6c0.5,0.4,1,0.8,1.5,1.2c-0.7,0.1-1.4,0.2-2.1,0.4c-1.2-0.4-2.4-0.8-3.6-1.1
			C481.4-26.3,482.8-26.5,484.1-26.6z"/>
		<path class="st92" d="M183.9,49.2c0-0.4,0-0.8,0-1.2c1.6,0.4,3.1,0.9,4.7,1.3C187,51.7,185.5,48.9,183.9,49.2z"/>
		<path class="st93" d="M121,218.3c1.9-1.7,3.8-1.7,5.7,0c-1.6,1-3.2,0.8-4.8,0.2l-0.5,0.1L121,218.3z"/>
		<path class="st94" d="M567.3,55.9l-0.1-0.2c1.5,0,2.7,0.7,3.7,1.8C569.1,58.6,568.1,57.5,567.3,55.9z"/>
		<path class="st16" d="M121.9,218.4c1.6-0.1,3.2-0.1,4.8-0.2c0.4,0.4,0.8,0.7,1.2,1.1C125.9,219.5,123.8,219.5,121.9,218.4z"/>
		<path class="st16" d="M157.1,218.3c1.5,0.2,3.2-0.5,4.6,0.8c-1.1,0.2-2.3,0.4-3.4,0.5c-0.8-0.1-1.6-0.2-2.3-0.3
			C156.3,219,156.7,218.6,157.1,218.3z"/>
		<path class="st95" d="M582.7,205.3c-0.5-1.7,0.4-2.7,1.8-3.5c0.5,0.5,1,1,1.5,1.5C584.9,203.9,583.8,204.6,582.7,205.3z"/>
		<path class="st96" d="M74.5,201.8c1.3,0.8,2.4,1.7,1.8,3.5c-1.1-0.7-2.2-1.4-3.3-2C73.6,202.8,74,202.3,74.5,201.8z"/>
		<path class="st25" d="M612.7,97.2c-0.8-1.2-1.6-2.3-2.5-3.5C613.6,93.1,613.2,95.1,612.7,97.2z"/>
		<path class="st97" d="M201.4,107.6c1.9,7.8,3.7,15.7,5.6,23.5c0.1,5.4,1.9,10.7,1.3,16.2c0.1,6.2-0.8,12.4-0.1,18.6
			c-0.3,2.2,1.4,5.8-3.5,4.4c-4.9,0.6-7.1-1.7-8.2-6.5c-3-13.7-12.4-22.9-23.2-30.9c-3.2-2.4-4.5-1.1-4.3,2.5c0.1,1.4,0,2.7-0.3,4.1
			c-1.4,7.1-2.8,14.1-7.3,20.1c-8.6,7.4-13.6,7.8-21.9,1.9c-0.4-2.2-1.7-3.6-4-4.1c-1.8-1.3-2.9-3.2-3.7-5.3c-0.1-3,1.8-3.1,4.1-2.7
			c4,4,7.9,7.9,14.4,6.9c2.4-0.4,4.4-1.2,6.2-2.8c7.4-6.6,9.5-33.5-0.4-40.9c-3.5-2.6-6.5-4.1-10.4-1.2c-1.5,0.4-2.1-0.6-2.7-1.7
			c-0.7-2.4-3.9-3.5-3.7-6.4c5.8-5,11.9-2.8,18-0.9c2.7,0.9,5.2,2.5,8,3.4c0.9,0.3,2,0.5,2.7-0.2c1.1-1,0.5-2.2-0.1-3.2
			c-1.1-2.1-3.1-3.4-5.1-4.6c-7.4-4.3-15.3-6.1-23.8-6.1c-3.4,0-7,1.1-10-1.5c2.5-4.3,7.3-3.7,11.1-4.3c10.9-1.9,22-3.9,33.2-2.5
			c7,0.9,14.1,0.1,20.9,2.2c-0.9,0.6-4.2-1.4-2.4,2.1c2.2,4.5,4.7,8.9,7,13.3C201.1,102.6,201.7,104.9,201.4,107.6z"/>
		<path class="st98" d="M129.1,90.1c11.8-0.2,23.6-0.6,34.2,6c1.1,0.7,2.5,1.2,3.5,2.1c2.4,2.2,5.5,4.9,3.8,8.3
			c-2.1,4-5.3,0.9-8-0.2c-7.4-3.3-14.7-7.1-22.9-2.4c-0.3,0.4-0.7,0.6-1.3,0.5c-0.5-0.2-0.9-0.4-1.3-0.7c-2-0.9-4.1-0.5-6.1-0.8
			c-0.8-0.1-1.2,0.1-0.4,0.1c0.1,0,0.1,0.3,0.2,0.5c-0.1,0.5-0.3,0.9-0.8,1.2c-3.9,1.7-7.7,3.5-10.5,6.8c-1.4,1.3-2.6,2.7-3.4,4.4
			c-2.5,3.7-1.9,8.5-4.9,12c-2.1,1.2-4.5,0.9-6.8,1.1c-9.3,0.7-11.9-2.4-9.7-11.6c1.3-5.5,2.8-10.9,7.6-14.6
			C109.9,95.8,118.6,91.1,129.1,90.1z"/>
		<path class="st5" d="M87.5,158.7c-8.5,2.1-16.2,5.9-23.5,10.8c0.9-22.7,10.3-41.5,25.7-57.7c0.4-0.5,1.4-0.4,2.1-0.6
			c1.6,2.2,0.9,4.5,0.4,6.7c-2.5,11.6-3.9,23.3-3.4,35.3C88.9,155,88.8,157,87.5,158.7z"/>
		<path class="st99" d="M87.5,158.7c-1.7-16.1,0.8-31.9,4.3-47.5c2.8-3.6,6-6.6,10.5-8.2c-2.9,5.5-5.4,11.1-6.7,17.2
			c-1.2,6,0.8,8.2,6.8,7.5c3.1-0.3,6.2-0.2,9.3-0.2c0.2,0.2,0.4,0.4,0.6,0.7c1.3,6.2-3.7,8.2-7.3,11.1c-4.6,3.3-7.6,7.6-8.1,13.3
			c-0.1,1,0,2-0.5,2.8c-4.8,7.9-2.5,15.4,0.9,22.9c0.6,1.2,1,2.5,1.4,3.8c0.4,1.5,0.4,3.1-0.4,4.5c-0.4,0.6-1,0.7-1.6,0.3
			C91.3,178.2,89.5,168.4,87.5,158.7z"/>
		<path class="st100" d="M137.3,51.7c5.8-1.1,11.6-1,17.5,0.1c-0.5,0.9-1.4,1.1-2.3,1.1c-5,0.8-10.1,0.9-15.1-0.1
			C137.3,52.5,137.3,52.1,137.3,51.7z"/>
		<path class="st101" d="M137.3,52.8c5,0,10.1,0,15.1,0c-4.9,2.3-10,0.8-15,0.9c-0.1,0-0.2-0.3-0.3-0.4
			C137.1,53.2,137.2,53,137.3,52.8z"/>
		<path class="st102" d="M161.9,52.8c0.4-0.2,0.7-0.1,1,0.1c-1.4,1.4-3,1.3-5.4,0.3C159.4,53.1,160.7,52.9,161.9,52.8z"/>
		<path class="st103" d="M216.5,93.8c-1.8,1.2-3.1,1.1-3.2-1.5C214.3,92.8,215.4,93.3,216.5,93.8z"/>
		<path class="st104" d="M537,91.3c6.3,2.1,12.2,5.2,17.5,9.3c1,0.7,1.9,1.4,1.6,2.9c-1.8,2.4-4.5,3-7.2,3.1
			c-3.7,0.2-6.8,0.6-9.9,3.4c-2.7,2.4-7.4,0.4-11.1,1.9c-1.2-0.1-2.2-0.8-3-1.6c-7.5-7.6-15.9-8.6-25.3-4c-1.1,0.6-2.2,0.6-3.3,0
			c-2.6-1.3-5.8,0-8.3-2c0.2-5.1,4-7.3,7.7-9.8c6.5-4.4,14.1-4.5,21.4-5.7C524,87.7,530.5,89.5,537,91.3z"/>
		<path class="st105" d="M595.1,169.4c-7.1-4.7-14.6-8.5-23-10.5c-1.6-1.2-1.7-3-1.7-4.7c0.2-11-0.8-21.9-2.4-32.8
			c0.4-2.7,0-5.8,3.7-6.7c11.2,11,18.1,24.3,21.2,39.6c-0.4,0.5-0.5,1-0.5,1.6c0,0.4-0.2,0.8,0.1,1.2c0-0.4,0.3-0.7,0.7-0.8
			C594.7,160.4,595,164.9,595.1,169.4z"/>
		<path class="st99" d="M569.5,120.7c2.4,12.6,2.8,25.4,2.5,38.3c0,0-0.3,0.1-0.3,0.1l-0.1-0.3c-3-0.6-0.4-3.3-1.6-4.4
			c0.2,2.2,0.2,4.6,1,7c-0.6,2.8-1.2,5.6-1.7,8.4c-0.7,4.3-2.6,4.3-5.4,1.7c-1.1-1-1.6-2.2-1.5-3.6c0.5-6.6-1.4-12.8-3-19
			c-0.3-6.7-5.2-13.5-11.2-15.6c-3.1-1.8-7.2-2.5-8-7c0.4-0.8,1-1.5,1.8-1.8c4.4-1.2,8.3,1.2,12.5,1.6c7.1,0.8,9.3-1.8,7.1-8.6
			c-1.1-3.5-3.1-6.6-4.4-10.1c-0.3-0.9-0.4-1.9-0.2-2.9c0.2-0.6,0.5-1.1,1-1.5c3.9,1.8,5.2,6.7,9.4,8.2
			C569.4,114.1,568.7,117.5,569.5,120.7z"/>
		<path class="st106" d="M537,91.3c-7-0.9-13.9-1.4-21-1.2c-3.1,0.4-7,0.3-9-1.1c-4.6-3.1-9.1-2.7-13.9-2.1
			c-6.9,0.9-13.8-2-20.7,0.6c-1.6,0.6-3.5-0.1-3.6-2.6c0.2-0.2,0.3-0.5,0.5-0.7c10.4-1.7,20.8-1.4,31.3-1
			C513.1,83.8,525.4,85.9,537,91.3z"/>
		<path class="st107" d="M504.4,51.8c6.2-1.2,12.4-1.1,18.6,0C516.8,53.5,510.6,53.5,504.4,51.8z"/>
		<path class="st108" d="M465.9,85.2c-2.3,0.5-4.6,1-6.9,1.5c-2.6-1.9,0.9-2.4,0.9-3.7c3,1.3,6.7-2.2,9.4,1.3c0,0,0,0.1,0,0.1
			C468.4,85.5,466.9,84.5,465.9,85.2z"/>
		<path class="st109" d="M569.5,120.7c-0.7-3.2-3.3-5.9-2.1-9.5c2.2,0.2,3.3,1.8,4.2,3.5C570,116.4,569.5,118.5,569.5,120.7z"/>
		<path class="st110" d="M596.6,178.4c0-2.2,0-4.4,0-6.6C597.9,174,597.6,176.3,596.6,178.4z"/>
		<path class="st111" d="M615.2,144.3c1.2,2.8,0.8,5.8,0.9,8.8C614.1,150.3,615.4,147.2,615.2,144.3z"/>
		<path class="st112" d="M566.1,61.1c0.7-0.1,1.3-0.2,2-0.3c1.1,0.2,2.1,0.4,3.2,0.6C569.4,62.3,567.7,62.7,566.1,61.1z"/>
		<path class="st113" d="M557.9,103c0,0.4,0,0.8,0,1.2c-1.3,0.6-1.8-0.3-2.3-1.2c-0.4-0.8-0.8-1.6-1.2-2.3
			C556.1,100.6,557.3,101.4,557.9,103z"/>
		<path class="st114" d="M593.1,156.2c-0.2,0.9-0.3,1.8-0.6,3.6c-0.8-2.6-1.2-4.1,0.3-5.5C592.9,154.9,593,155.5,593.1,156.2z"/>
		<path class="st115" d="M496.2,52.9c0.3-0.3,0.6-0.3,1-0.1c1.2,0.1,2.4,0.3,4.4,0.5C499.2,54.3,497.6,54.4,496.2,52.9z"/>
		<path class="st116" d="M529.2,52.6c0.6,0.1,1.3,0.2,1.9,0.3c-1.3,1.4-2.9,1.2-4.7,0.7C527.1,52.4,528.4,53.1,529.2,52.6z"/>
		<path class="st117" d="M193.4,173c-5.7,6.5-4.9,12.9-0.1,19.5c1.5,4.1-0.8,6.2-4.1,7.7c-1.2,0.1-2.3-0.1-3.4,0
			c-3.6,0-3.7,4-6.3,5.2c-4.3,2-8.6,4.1-13.3,5.1c-7.5,1-15,1.1-22.5,1.7c-2.6,0.4-5.1-0.5-7.7-0.2c-7.5-2.9-15.3-5.1-21.9-10
			c-1.5-1.1-2.9-2.5-4.5-3.4c-0.5-0.3-0.9-0.6-1.3-1c-3.3-3.7-6.9-7.3-8.3-12.4c-0.3-2.3-0.3-4.7-1.1-7c-1-5.8,0.1-11.5,1.7-17
			c0.6-2,1.9-3.8,4-4.7c3.6,2.1,6.5,1.5,8.6-2.3c1.9-1.7,0-3-0.6-4.4c-0.1-0.5-0.1-1.1,0-1.6c0.6-1.6,1.9-3,3.4-1.9
			c3.2,2.3,6.8,3.2,10.6,3.8c1.2,0.2,2.1,1.2,0.9,2.5c-1.3,0.9-2.9,0.9-4.3,1.4c-8.1,2.5-10.5,8.7-6.5,16.4c1.7,2.5,4.3,2.4,6.7,2
			c3.1-0.4,4.2,0.9,3.9,3.9c-0.4,4.2,0,8.4,1.9,12.3c4,7.5,10.1,11.4,18.8,10.9c8.5-0.5,13.8-5.4,17.3-12.6c1.6-3.3,3.3-6.1,7.3-6.5
			c6.4-0.9,5.4-5.3,4.7-9.6c-0.1-0.8-0.1-1.6,0.2-2.3c1.1-1.7,2.6-2,4.2-0.9c1.1,0.8,1.6,0.2,2-0.8c1-1.2,2.1-2.2,3.4-3
			c1-0.5,2.1-0.8,3.2-0.2C193,166.1,193.4,169.5,193.4,173z"/>
		<path class="st118" d="M193.4,173c-2.3-2.7-1.8-6.6-3.7-9.5c-2.2-0.8-3.3-2.8-4.2-4.6c-3.6-7.1-9-12.4-15.4-16.8
			c-1.1-0.8-2-1.8-2.6-3c0.4-3.3-1.5-8.2,1.3-9.6c2.7-1.3,6,2.5,8.7,4.6c10.1,7.8,18.4,17.1,20.6,30.1c0.8,4.4,3.4,5.2,6.7,6.1
			C200.7,170,196.7,170.1,193.4,173z"/>
		<path class="st119" d="M188.5,199.5c2.7-1.6,4.5-3.8,4.8-7c7.2,1.1,3,5.2,2.2,8.4c-1,3.3-3.4,4.7-6.6,5.2c-1.6-0.4-2.9-1.4-4-2.5
			c-0.2-0.5-0.3-1-0.2-1.6C185.4,200.3,186.6,199.3,188.5,199.5z"/>
		<path class="st120" d="M188.8,206c2.2-1.7,4.4-3.4,6.6-5.1c4.4-0.8,3,2.7,3.5,4.8c-3.5,0.7-6.9,1.5-10.4,2.2
			C187.8,207.1,188,206.5,188.8,206z"/>
		<path class="st121" d="M208.2,165.9c-1.6-6.2-1.8-12.4,0.1-18.6C209.4,153.5,209.1,159.7,208.2,165.9z"/>
		<path class="st122" d="M562.6,171.5c-1.7,0.7-3.1-0.4-4.6-0.9c-1.9,1-4.1,1.2-5.9,2.2c-4.2,2.7-5.1,6.9-5.6,11.4
			c1.1,3.5-0.8,3-3,2.3c-7.2-2.4-7.7-2.3-7.7,5.5c0,4.5-1.5,7.7-4.5,10.6c-0.3,0.5-0.7,0.9-1.1,1.3c-1.7,1.1-2.7,2.9-4.3,4.1
			c-4.3,3.1-9.3,2.6-14.2,2.6c-2.5-0.1-5,0.1-7.5-0.3c-2-0.4-3.6-1.4-4-3.6c-0.3-1.4,0.3-2.7,1.5-3.5c1.8-1.2,3.3-0.2,4.7,1
			c1.2,1,2.5,1.9,4.3,1.5c0.1-1.9-3.2-1.3-2.6-3.2c0.7-2,2.8-1.7,4.5-1.9c1-0.1,1.9-0.2,2.8-0.6c8-2.1,13.6-6.7,15.8-14.8
			c1.2-3.3,0.9-6.6,0.4-9.9c0-1.2,0.3-2.2,1.5-2.8c2.7-0.6,5.8,1.3,8.2-1.3c5.4-6.2,3.8-12.7-4.2-16.7c-1.8-0.7-3.5-1.2-5.3,0
			c-2.9,0.9-2,5.2-5.3,5.9c-1.4-1.2-1.7-2.8-1.7-4.6c0.1-0.6,0.3-1.1,0.7-1.6c1.7-2.2,3.6-4.5,6.4-4.4c5.4,0,10.4-1.5,15.4-3.3
			c1.6,0.3,2.6,1.2,2.8,2.9c-0.2,0.5-0.6,1-1,1.3c-2.7,1.9-2.6,4.2-0.5,6.3c2.7,2.7,3.4-0.9,4.9-1.8c3.7,1.2,4.1,4.8,5.4,7.7
			c0.7,1.6,0.3,3.5,1.8,4.8C561.8,168.7,564,169.2,562.6,171.5z"/>
		<path class="st123" d="M562.6,171.5c-0.2-2.3-1.9-2.1-3.5-2.2c2.1-8.3-3.8-14.3-6.3-21.3c-0.9-2.4-2.9-4.5-2.6-8.1
			c-0.9,2.5,0,5-2.7,5.6c-5.9-3.6-12.5-6.1-17.2-11.5c-0.6-3.3-1.7-6.6-1.2-10c4.7-3.9,7.9-0.4,11.2,2.4c2.3,2.6,5.4,4.1,8.3,5.7
			c5.5,3.8,9.5,8.7,11.5,15.2c3.2,7.7,4.2,15.8,3.7,24.1C563.4,171.4,563,171.5,562.6,171.5z"/>
		<path class="st124" d="M530,203.2c4.1-5.1,4.3-11.2,4.8-17.4c0.4-4.3,3.6-3.1,6.6-2.1c1.4,0.5,2.9,4.7,5,0.6
			c1.5,3.2,3.1,6.4,4.6,9.6c-0.8,6.9-6.7,8.4-11.7,10.7C536,204.9,532.6,206.8,530,203.2z"/>
		<path class="st125" d="M540.5,212.5c-12.9,0-25.8,0-38.8,0c-1.5,0-3.1,0.3-4.3-1.1c0.2-0.2,0.5-0.5,0.7-0.7
			c4.9-1.4,9.9-0.1,14.8-0.5c8.7,0.6,16.1-4,24.2-6c5.1,0.6,8.7-2.5,11.8-5.7c1.7-1.8,3.3-3,5.6-3.3c4.5-0.6,1.3,2.1,1.5,3.4
			c0,2.4-2,3.5-3.2,5c-2.1,1.4-4,2.9-5.6,4.8c-1.1,1-2.1,2-3.4,2.7C542.6,211.4,541.4,211.6,540.5,212.5z"/>
		<path class="st126" d="M551.9,202.8c0.6-2.1,3-2.6,4-4.3c8,0.1,6.6-0.3,6.7,9.3c-1.3,1.2-2.9,1.4-4.5,1.5
			C551.4,208.9,551.2,208.6,551.9,202.8z"/>
		<path class="st127" d="M557.9,207.8c1.6,0,3.1,0,4.7,0c0.8,0.8,1.6,1.5,2.3,2.3c-4.3,0.5-8.6,0.9-12.8,1.4
			c-1.7-0.6-3.1,0.3-4.7,0.6c-1.4-0.9-4,1.2-4.6-1.8c1.1-0.9,2.3-1.8,3.4-2.7C550.1,208.2,554,209.1,557.9,207.8z"/>
		<path class="st128" d="M554.4,195.1c-4.4,2.7-7.3,7.3-12.2,9.3c-1.5,0.6-2.6,1.5-4,0.2c0-1,0.8-1.1,1.5-1.3
			c4.7-2.1,8.7-5,11.4-9.4C552.5,193.3,553.3,194.7,554.4,195.1z"/>
		<path class="st129" d="M570.9,161.3c-2.3-2-1.1-4.7-1.2-7.2c1.9,1.2,0.2,3.6,1.9,4.6C572,159.7,572.2,160.7,570.9,161.3z"/>
		<path class="st130" d="M552,172.8c1.7-1.6,3.6-2.5,5.9-2.2C556.8,173.4,554.2,172.5,552,172.8z"/>
		<path class="st131" d="M452,131.1c1.4-5.9,2.8-11.9,4.2-17.8c2.5,1.3,2.6-1.2,3.6-2.3c1.7-1.9,3-5.2,6.3-3.5
			c2.9,1.5,2.8,4.6,2,7.2c-1.4,4.7,0.7,8.6,2,12.8c0.4,1,0.8,2,1.3,3c1,2.2,2.7,3.8,4.5,5.3c0.4,0.4,0.7,0.8,1,1.3
			c0.2,0.5,0.2,1.1,0.1,1.7c-0.5,1.7-1.8,3-3,4.2c-7.2,7.1-10.9,16-12.9,25.8c-0.9,3.6-0.8,7.3,0,10.9c0.4,2.5,1.4,4.9,1.3,7.5
			c-0.6,2.6-2.2,3.1-4.4,2.1c-0.4-0.8-0.8-1.5-1.2-2.3c0.8-1.3,0.1-2-1.1-2.3c-1.3-1.2-1.5-2.9-1.6-4.5c0.9-1.2,0.3-1.9-0.8-2.4
			c-1.8-3.3-1.9-7-2.6-10.5c-0.5-1.2-0.4-2.5-0.1-3.7c0.5-5.4,0.6-10.8-0.1-16.2c-0.1-1.9-0.5-3.8,0.3-5.7
			C451.1,138,451.6,134.5,452,131.1z"/>
		<path class="st132" d="M464.7,208c-1.3-1.2-2.9-1.6-4.6-1.6c0.5-2.6,0.7-5.2,3.3-6.8c2,0.3,3,2.2,4.5,3.2c1.1,1.5,3.2,2.6,1.3,4.9
			C467.7,207.8,466.2,207.9,464.7,208z"/>
		<path class="st133" d="M457.9,189.2c0.9-1.1,2.8,0.1,3.5-1.5c3.1,0.7,3.4,3.9,5.2,5.8c1.1,2.7,4.6,4,4.1,7.5
			c-0.7,0.5-1.5,0.6-2.3,0.4c-3.8-1.4-4.4-6.1-8.1-7.6C459.2,192.4,457.2,191.5,457.9,189.2z"/>
		<path class="st134" d="M460.2,193.8c5.3-0.7,5.1,5,8,7c0.8,1.3,0.8,2.3-1.2,2.3c-1.3-1.2-2.5-2.3-3.8-3.5
			C462.3,197.7,461.2,195.8,460.2,193.8z"/>
		<path class="st135" d="M450.8,163.5c-0.1,1.2-0.2,2.3-0.3,3.5c-1.7-8.5-1.8-17.1,0.1-25.6c0.1,1.9,0.1,3.9,0.2,5.8
			C451.6,152.7,451.6,158.1,450.8,163.5z"/>
		<path class="st134" d="M453.1,177.5c1.7-0.8,3.7-0.9,4,1.2c0.2,1.5-2,1-3.2,1.2C453,179.3,453,178.5,453.1,177.5z"/>
		<path class="st134" d="M455.5,184.5c1-0.4,1.6-2.5,2.4-1.7c1.5,1.5-0.3,2.8-1.3,4C456.2,186.1,455.9,185.3,455.5,184.5z"/>
		<path class="st136" d="M114.1,200.8c6.8,4.3,14.6,6.6,21.9,10c0.9,1.4,0,2-1.2,2.4c-6.2-0.7-11.9-4.7-18.5-3.3
			c-2.7-1.3-5-3.2-7-5.5c-0.6-1.8-1.2-3.5-3.5-3.5c-3.6-4.3-7.3-8.5-9.2-14c0.4,0,0.7,0,1.1,0c2.7-1.7,3,1,4.1,2.3
			c2.4,2.8,3.9,6.6,7.7,8.1l0,0C110.9,198.5,112.3,199.9,114.1,200.8z"/>
		<path class="st137" d="M116.3,209.8c3.2-4.2,6.9-1.1,10.3-0.6c2.5,0.4,4.8,2.1,7.2,3.2c-4.2,1.6-8.7-0.4-12.8,1.2
			c-1.3,0-2.6,0.2-3.5-1C119,210.9,116.5,210.9,116.3,209.8z"/>
		<path class="st138" d="M105.8,200.9c0.7-0.4,1.4-0.9,2.1-1.3c0.9,1.5,2.8,2.7,1.4,4.9C108.1,203.2,106.9,202,105.8,200.9z"/>
		<path class="st139" d="M94.2,209.8c-0.4,0.1-0.8,0.3-1.2,0.4c0.4-3.3,2.8-2.1,4.7-1.9C96.5,208.8,95.3,209.3,94.2,209.8z"/>
		<path class="st140" d="M104.6,211.4c-1.3,1.6-2.9,0.9-4.8,1.1c0.8-1.6,2.1-0.9,2.9-1.3C103.3,211.2,104,211.3,104.6,211.4z"/>
		<path class="st99" d="M469.2,128.6c-2.3-4.8-4.6-9.5-2.3-15.1c0.6-1.6,0.8-4.3-1.4-5.1c-3.4-1.3-2.9,3.5-5.5,3.9
			c-1.9,0.2-2.8-0.5-2.4-2.5c-0.1-0.4,0-0.7,0.2-1c2.4-1.4,1.3-4,2.2-5.9c1.4-5.4,4.1-10.2,7-14.9c1-1.6,1.6-2.7-1.1-2.7
			c0.9-1.1,2.2-0.9,3.4-0.9c0.2,2,1.9,3,3.2,2.1c4-3.1,8-1.1,12.1-1c4.6,0.1,9.2,0.9,13.7-0.8c2.2-0.8,4.7,0.1,6,1.1
			c2.8,2.3,5,3.9,8.5,1.2c0.8-0.6,3.3,0.2,0.9,2.2c-0.7,0.6-0.2,0.9,0.4,1c0.6,0.1,1.2,0.1,1.7,0.1c-4.3,2.5-9.4,0.5-13.9,2.8
			c-5.5,2.8-10.7,5.6-14.1,11c-3.2,3.8-8.4,5-11.6,9c-2,2.6-4.1,5-4.9,8.2C470.4,123.6,471.7,126.6,469.2,128.6z"/>
		<path class="st141" d="M460,102.9c0.3,2.3,2.5,5.4-2.2,5.9C458.1,106.6,458.8,104.7,460,102.9z"/>
		<path class="st141" d="M457.6,109.8c0.5,1.2,1.2,2,2.4,2.5c-0.8,2.3-1.9,3.3-3.9,1C456.7,112.1,457.2,110.9,457.6,109.8z"/>
		<path class="st142" d="M201.4,107.6c-1.2-2.1-2.2-4.3-2.5-6.8C202.3,101.8,202.9,103.4,201.4,107.6z"/>
		<path class="st143" d="M626.8,129.7c-0.3,0.4-0.7,0.7-1,1.1c0.2-1.4-1.7-3.2,0-3.9C626.8,126.5,626.5,128.6,626.8,129.7z"/>
		<path class="st124" d="M470.9,200.7c-1.4-2.5-4.8-3.5-5.1-6.8c-5.1-12.3-1.9-29.2,7.3-37.8c1.2-0.4,2.4-0.4,3.3,0.6
			c0.7,2.1-1.1,3.1-2,4.5c-1.3,2-1,3.6,1.1,4.8c2,1,5-0.2,6.3,2.6c0.7,2.7,1.1,5.4,1,8.2c0.2,1-2,0.9-1.1,1.5
			c4.2,2.9,6.7,7.8,11.3,10.2c1.2,0.6,2,1.6,2.9,2.6c1.6,1.8,3.3,3.4,5.2,4.9c2.9,2.1,6.1,3.1,9.6,3.4c1.9,0.2,3.9-0.1,5.3,1.7
			c-2,2.1-4.8,0.3-7.3,1.5c1.7,0.6,3.3,1.2,4.9,1.8c-3,4.6-4.4,4.8-8.2,0.9c-0.8-0.8-1.4-1.9-2.8-1.5c-1,0.3-1.5,1.1-1.6,2.2
			c-0.1,1.6,0.9,2.7,2.3,2.9c2.7,0.3,5.4,0.2,8,0.2c0.4,0.7,0.3,1.2-0.4,1.6c-4.5,0.4-9.1-0.3-13.6,0.4c0,0,0,0.4,0,0.4
			c-0.7-0.1-1.5-0.1-2.2-0.2c-6.7-1.1-13.5-1.9-19.4-5.6c-1.2-0.7-2.2-1.6-3.3-2.4C471.7,202.6,470.9,201.9,470.9,200.7z"/>
		<path class="st144" d="M475.5,204.2c6.3,3.2,12.9,5.2,19.7,7.1c-8.8,0.2-17.5-1.4-26-3.5c1-2.3-1.9-2.8-2.1-4.6
			c0.9-0.5,1.1-1.4,1.2-2.3c0.9,0,1.8-0.1,2.7-0.1c0.6,0.5,1.3,1,1.9,1.6C473.2,203.6,474.3,203.9,475.5,204.2z"/>
		<path class="st145" d="M542.9,210.3c1.1,1.7,3.4,0.1,4.6,1.8c-2.3,0.1-4.6,0.2-6.9,0.4C540.8,211.2,541.8,210.7,542.9,210.3z"/>
		<path class="st146" d="M120.9,213.7c4.1-2.5,8.6-0.5,12.8-1.2c1.2,0,2.1-0.4,2.2-1.7c2.5-1.4,4.8,0.7,7.2,0.3
			c7.3-0.8,14.8,0.6,22-1.4c5.8-0.6,11-3,16.1-5.8c1.2-0.7,2.3-1.4,3.7-0.7c1.9,0,3.1,1.1,3.8,2.8c-0.1,0.6-0.1,1.2-0.2,1.9
			c-0.4,0.4-0.8,0.8-1.2,1.2c-4,0-8,0.6-11.6,2.3c-10.8,1.2-21.7,2.8-32.6,2.3c-3.1,0.9-6.2,0.9-9.3,0
			C129.5,213.7,125.2,213.7,120.9,213.7z"/>
		<path class="st16" d="M133.8,214.8c-2.4,2.1-2.4,2.1-5.3,1C130,214.1,132,215.2,133.8,214.8L133.8,214.8z"/>
		<path class="st16" d="M133.8,213.7c3.1,0,6.2,0,9.3,0c-2.9,2.3-6.2,0.7-9.3,1.2c0,0,0,0,0,0C133.8,214.4,133.8,214,133.8,213.7z"
			/>
		<path class="st147" d="M152.4,219.5c-0.7,0-1.4,0.1-2,0.1c-1.1-0.1-2.2-0.3-3.4-0.4C148.9,217.8,150.7,217.9,152.4,219.5z"/>
		<path class="st148" d="M173.4,181.1c-3.8,0.6-5.5,3-7,6.5c-3.4,7.9-9.4,12.9-18.5,13.3c-9.2,0.4-16-3.3-19.9-11.8
			c-0.7-4.9-2.9-9.7-1.1-14.9c0.8-2.4-1.4-2.2-2.9-2.2c-3.1,0.1-6.1,0.3-8.8-1.5c-6.3-9.3,2.2-19.5,11.6-18.6
			c2.4,0.4,4.5,1.3,5.3,3.7c0.9,2.8,3,2.5,5.1,2.3c1.2,0.3,2.1,0.8,2.4,2.1c7.5,5.1,12.1,4.8,21-1.3c5.2-2.2,10.4-4.1,14.6,1.7
			c1.8,2.3,3.2,4.7,2.8,7.7c0,0.8,0.1,1.6,0.1,2.3C178.9,175.1,179,179.4,173.4,181.1z"/>
		<path class="st149" d="M145.3,111.4c2.3-4.6,6.8-5.1,11-1c4.8,4.7,8.2,10,7.8,17.3c-0.3,7.1,0.4,14.3-2.7,21
			c-5.4,11.6-17.5,12.9-25.1,2.6c-0.4-0.6-1-1.2-1.5-1.7c-3.4-2-3.9-5.6-4.6-9c-0.4-2.1-0.7-4.2-1.7-6.1c0.3-2.6,2.4-3.8,4.1-5.3
			c4.5-3.8,7.9-8.3,10-13.8C143.3,113.9,143.8,112.3,145.3,111.4z"/>
		<path class="st4" d="M144.1,115.7c-2.4,8.3-9.3,13-14.9,18.8c-0.5,0.6-0.7,1.3-1.3,1.8c-0.8,0.6-1.8,1-2.7,1.4
			c-1.5,0.4-3.1,0.8-4.6,1.1c-1.5,0.2-2.8-0.2-3.9-1.2c-3.7-2.5-4.5-6.2-4.8-10.3c0,0-0.2,0-0.2,0c0.4-4.5,0.7-9,3.6-12.8
			c0.3-0.4,0.7-0.5,1.2-0.4c1.8,0.2,1.5-1.1,1.6-2.2c0.1-0.5,0.2-0.9,0.3-1.4c3-3.7,7-5.8,11.7-6.7c2.8-1.8,5.6-0.6,8.5,0
			c0.3,0.1,0.7,0.1,1,0c1.2,1.9,5.1,1.4,4.5,4.9C143.7,111.1,143.7,113.4,144.1,115.7z"/>
		<path class="st150" d="M174.6,161.1c-3.8-3.1-7.6-5.2-12-0.9c-1.4,1.3-1.8-0.2-2-1.4c3.6-6.1,5.4-12.9,6.9-19.8
			c10.5,5.3,17.2,14.2,22.2,24.5c-0.8,0.4-1.6,0.8-2.4,1.2c-0.6-0.5-1-1.1-1.4-1.8c-1.9-3.6-3.5-3.1-4.8,0.4
			C177.2,167.9,177,161.3,174.6,161.1z"/>
		<path class="st151" d="M120.9,137.7c1.1-1.8,2.9-0.9,4.3-1.2c1.6-0.5,2.1,0.6,1.9,1.8c-0.4,2.9,1.4-0.5,1.6,0.6
			c2.8,4,3.1,8.6,3.8,13.1c1.1,1.5,2.2,3.1,3.3,4.6c0.9,0.4,2,0.8,1.5,2.1c-2.7,0.7-6.1,3.5-6.3-2.6c-0.1-2.2-2.9-2.8-4.3-4.3
			c-0.6-2.7-2.7-0.8-4-1.1c-2.1-0.5-4.2,0.3-5.7-2.5c-1.7-3.2-3.2-1-4.2,1.2c-0.9,1-2,1.1-3.2,0.5c-1-5,3.2-6.7,5.9-9.4
			C117,139,119.3,139.1,120.9,137.7z"/>
		<path class="st152" d="M132.6,152c-2.8-3.9-2.8-8.8-4.5-13.1c-1-1.1-0.8-2.3-0.2-3.5c0.5-0.3,0.9-0.6,1.4-0.9
			c0.8,0.8,2.7,0.5,2.3,2.6c-0.7,4.6,2.1,8.4,3.4,12.5C134.3,150.6,132,149.9,132.6,152z"/>
		<path class="st153" d="M137.4,158.8c-0.5-0.7-1-1.4-1.5-2.1c2.1,0.2,5.3-0.8,3.7,3.4C138.8,159.6,138.1,159.2,137.4,158.8z"/>
		<path class="st154" d="M144.1,115.7c-1.5-2.3-1.5-4.6,0-6.9c0.4,0.9,0.8,1.7,1.2,2.6C144.9,112.8,144.5,114.3,144.1,115.7z"/>
		<path class="st155" d="M138.6,103.9c-2.8,2.1-5.6-0.4-8.5,0c0.1-0.3,0.2-0.6,0.3-0.8c2.6-1.2,5.3-1,7.9-0.1
			C138.5,103.3,138.5,103.6,138.6,103.9z"/>
		<path class="st156" d="M138.4,103c-2.7,0-5.3,0-8,0.1C133.1,100.6,135.8,101.4,138.4,103z"/>
		<path class="st157" d="M118.4,110.6c0.1,0.5,0.1,1.1,0.2,1.6c0.4,1.9-0.4,2.7-2.4,2.3l-0.5,0c0,0-0.5,0-0.5,0
			C115.9,112.9,117,111.6,118.4,110.6z"/>
		<path class="st158" d="M85.7,139.4c0,3.8,0,7.5,0,11.3c-0.2,0-0.4,0-0.6,0c0-3.8,0-7.6,0-11.4C85.3,139.3,85.5,139.4,85.7,139.4z"
			/>
		<path class="st159" d="M111.8,127.4c1,3.6,2.6,7,5.6,9.4c-0.5,2.6-2,2.9-4.2,2.1c-2.8-1-4.9,0-6.3,2.5
			c-6.4,11.7-10.4,23.8-6.9,37.3c2,2.1,0.8,4.7,1.1,7c-3.6-0.1-2.3-3.8-4-5.3c-1.7-4.7-3.4-9.3-3.1-14.5
			c0.6-10.5,2.8-20.3,10.8-27.9C107.9,134.9,112.3,132.8,111.8,127.4z"/>
		<path class="st160" d="M104.8,138c-9.5,13.1-12,27.4-7.1,42.9c0.3,0.3,0.4,0.6,0.3,0.9c-0.1,0.3-0.2,0.4-0.3,0.4
			c-4.2-5.4-4.7-12-5.7-18.4c-0.3-1.9-0.2-3.9,0.9-5.6C97,151.5,95.5,141.6,104.8,138z"/>
		<path class="st161" d="M97.6,182.2c0-0.4,0-0.9,0.1-1.3c1.1,1.6,2.3,3.2,3.4,4.8c1.9,4.5,5.6,7.6,8.3,11.5
			c-4.2,0.4-5.3-3.1-7.2-5.6c-1.3-1.8-1.8-4.4-4.6-4.8C97.6,185.3,97.6,183.8,97.6,182.2z"/>
		<path class="st162" d="M470.5,120.2c2.4-9.2,9.2-13.6,17.5-16.3c3,0.5,6.4-1.2,9.1,1.4c3.1,4.2,1.6,9.5,3.5,14
			c-0.3,4.3-3.2,7-5.9,9.8c-0.9,0.7-1.8,1.2-2.9,1.5c-5,2-8.8,6.6-14.6,6.6c-0.3,0-0.5,0-0.8,0c-0.4-0.2-0.8-0.3-1.2-0.5
			c-2-2.7-4.4-5.2-4.6-8.8C471,125.2,469.2,122.8,470.5,120.2z"/>
		<path class="st98" d="M555.6,102.9c0.8,0.4,1.5,0.8,2.3,1.2c0.4,4,2.7,7.1,4.3,10.6c1.2,2.6,1.7,5.1,1.6,7.8
			c-0.1,4.2-2.1,6-6.3,5.3c-5.3-0.9-10.6-1.8-15.9-2.8c-7.3-2-12.2-6.4-14-14c2.6-1.2,5.1-3.4,8.3-1.4c0.5,0.3,2,0.1,2.1-0.2
			c2.2-6.6,7.7-3.4,11.9-4.3C551.9,104.8,553.8,103.7,555.6,102.9z"/>
		<path class="st163" d="M527.7,111.1c3.4,5.9,8.1,10.5,14,14c-0.4,0.4-0.9,0.8-1.3,1.3c-3.6-0.3-6.4-3.8-10.3-2.4
			c-0.7,6.1,0.4,12,0.9,18c0.4,5.4-2.2,9.5-5.6,13.4l0,0c-0.6,1.9-1.7,3.4-3.6,4.2c-0.6,0.1-1.1,0-1.7-0.1c-1.4-0.8-2.1-2-2.3-3.5
			c0-2.6,1.9-4.1,3.3-5.9c8-10,6.9-28.2-2.4-37.1c-5.9-5.7-10.5-5.1-14.5,2c-0.4,0.7-1,1.1-1.8,1.2c-2.6-3.1-1.5-7.4-3.6-10.6
			C510.8,99.8,516.4,99.7,527.7,111.1z"/>
		<path class="st164" d="M498.5,105.4c4.3,2.4,3.7,6.5,3.6,10.4c0.5,2-0.1,3.4-2.3,3.8c-1.1-3.2-4-6.6-1.7-9.7c2-2.7-6.1-2-1.1-4.6
			C497.6,105.5,497.9,106.9,498.5,105.4z"/>
		<path class="st165" d="M560.2,147.3c-3.1-5.6-7.3-10.4-11.5-15.2C554.3,133.7,560.9,142.4,560.2,147.3z"/>
		<path class="st166" d="M100,178.7c-2.6-4.4-3.8-9-2.4-14.1c2-7.9,2.8-16,7.5-23.1c2.5-3.7,4.6-6.7,9.2-3.7c1.9,1.3,2.2-0.7,3.2-1
			c0.9,1.1,2.2,1.2,3.5,1c-4,3.8-9,6.7-11.5,12c0.1,3-1.5,5-3.7,6.8C99,162.7,100.4,170.9,100,178.7z"/>
		<path class="st167" d="M105.7,156.5c0.4-2.7,2.1-4.7,3.7-6.8c1.1-0.1,2.3-0.1,3.4-0.2c0,0,0,0,0,0c1.7,1.2,2.3,2.7,1.2,4.7
			c-0.9,1.4-1.5,3.2-2.8,4.3C108.5,160.9,106.1,161.3,105.7,156.5z"/>
		<path class="st168" d="M115.1,170.5c1.9,0,3.8,0,5.7,0c4.5,0,8.3,0.4,6.1,6.7c-1.4,4,2.9,7.7,1.1,11.9c-2.9-4.8-2.5-10.1-2-15.8
			C121.9,174,117.5,175.6,115.1,170.5z"/>
		<path class="st169" d="M180.2,163.6c0.4-2-0.6-5.4,2.5-5.4c3.7,0,4.7,3.2,4.6,6.5c-1.1,0.8-1.7,2.5-3.5,2.4
			C181.3,167.4,179.5,166.8,180.2,163.6z"/>
		<path class="st170" d="M185,203.2c-6,3-11.8,6.4-18.7,7c-0.4-0.3-0.5-0.5-0.4-0.8c0.1-0.3,0.3-0.4,0.4-0.4
			c5.5-2.6,12.8-2.3,15.6-9.5c0.6-1.6,2.7-0.9,4.2-1c0.6,1.5-0.7,2.5-1.1,3.7C185.1,202.5,185.1,202.9,185,203.2z"/>
		<path class="st171" d="M180.2,163.6c0.3,2.1,2.2,2.7,3.7,3.5c0.1,0.9,0.6,2.1,0.2,2.6c-0.8,1.1-1.7-0.1-2.2-0.7
			c-1.1-1.3-2.3-1.8-3.9-0.8c-1.1-2.4-2.3-4.7-3.4-7.1C177.6,159.4,177.1,165.5,180.2,163.6z"/>
		<path class="st172" d="M166.4,209c0,0.4,0,0.8,0,1.2c-7.7,2-15.4,1.5-23.2,0.8C151,210.3,158.7,209.7,166.4,209z"/>
		<path class="st171" d="M173.4,181.1c3.9-2.5,4.5-6.4,4.7-10.6C180.5,177.4,179,180.9,173.4,181.1z"/>
		<path class="st173" d="M114.1,200.8c-2.5,0-3.9-1.5-4.7-3.6C111.5,197.6,112.9,199.1,114.1,200.8z"/>
		<path class="st151" d="M114,154.2c-0.4-1.6-0.8-3.1-1.2-4.7C115.7,150.5,116.7,151.9,114,154.2z"/>
		<path class="st174" d="M185.1,202.2c0.4-1.2,0.7-2.5,1.1-3.7c0.7,0.3,1.5,0.7,2.2,1C187.3,200.4,186.2,201.3,185.1,202.2z"/>
		<path class="st175" d="M520.9,159c0.3,0,0.6-0.1,0.8-0.2c2-1.3,3.4-0.2,4.7,1.1c1.7-2.2,1.2-5.9,4.7-6.8c1.9,0.3,3.9,0.3,5.8,0
			c7.3,2.4,10.7,9.1,8.3,15.6c-0.7,1.8-1.5,3.1-3.6,3.1c-2,3-4.4,1.1-6.6,0.4c-0.4-0.1-2.1-2.3-1.6,0.6c-0.9,0.6-1,1.5-1,2.4
			c0,3.5-0.3,7-0.1,10.5c-2.2,8.6-7.9,13.3-16.3,15.3c-5.8-0.2-11.9,0.4-16.3-4.7c-1.2-1.9-2.5-3.8-4.7-4.7
			c-0.8-0.8-1.6-1.6-2.3-2.3c-1.9-2-2.7-4.7-4.6-6.8c-7.4-5.3-6.6-12.4-4.7-19.9c0.1-0.8,0.2-1.6,0.7-2.4c0.4-0.4,0.9-0.6,1.4-0.6
			c3.4,0.2,6.7-0.7,10.1-0.1c1.2,0,2.4,0.3,3.6,0c0.5,0,1,0.1,1.5,0.2C507.7,163.6,514.3,161.5,520.9,159z"/>
		<path class="st176" d="M525.2,155.4c1.8-4.2,4.2-8.2,4.6-12.9c-0.7-2.9-0.2-5.6,1.4-8.1c5.6,3.3,11.5,5.9,16.2,10.5
			c0.7,0.8,0.7,1.5,0,2.3c-4.4,3-9.3,4.2-14.6,3.5C529.2,150.3,528.1,154.3,525.2,155.4z"/>
		<path class="st177" d="M547.5,147.2c0-0.8,0-1.5,0-2.3c1.7-1.4,1.2-3.1,0.6-4.8c-0.6-1.9,0.7-2.5,2.1-2.6c1.5-0.1,2.2,1.3,1.8,2.4
			c-1.6,3.7,1.4,5.6,2.8,8.2c2.5,4.8,3.9,10.2,6.6,15c1.3,2.2-0.8,4.4-2.1,6.3c-2-4.6-1.9-10.1-5.8-13.9c-2.4-1.1-3.7-2.9-3.6-5.7
			C549.4,148.5,548.6,147.7,547.5,147.2z"/>
		<path class="st178" d="M549.7,149.7c1.2,1.9,2.4,3.8,3.6,5.7c-0.3,1.9,0.7,4.9-2.7,4.5c-3.5-0.4-5-3.4-5.4-6.6
			C544.9,150.3,546.9,149.4,549.7,149.7z"/>
		<path class="st179" d="M511.3,210.2c0-0.4,0-0.8,0-1.2c5.2,0.3,10.3-0.1,15.1-2.3c1.3-1.1,2.4-2.2,3.5-3.5c0,0,0,0,0,0
			c3.2,1.7,6.4,0.1,9.6,0.1c-0.5,0.4-1,0.9-1.5,1.3c-7.9,3.3-15.9,6.2-24.6,6.5C512.9,210.5,511.9,211,511.3,210.2z"/>
		<path class="st180" d="M532.3,185.7c-1.8-3.5-1.9-7,0.1-10.5C534.1,178.7,533.7,182.2,532.3,185.7z"/>
		<path class="st181" d="M533.4,172.7c-0.8-0.5-1.5-1-2.4-1.6c3.8-2.4,7,3.3,10.6,0.6C539.4,176,536.4,173.9,533.4,172.7z"/>
		<path class="st176" d="M526.5,159.9c-1.6-0.4-3.2-0.7-4.7-1.1c1.2-1.2,2.3-2.3,3.5-3.5C526.1,156.7,526.7,158.2,526.5,159.9z"/>
		<path class="st182" d="M537,153.1c-1.9,1.7-3.9,1.7-5.8,0C533.1,151.8,535,151.8,537,153.1z"/>
		<path class="st124" d="M530,203.2c0.3,2.6-0.9,3.8-3.5,3.5C526.6,204.4,527.7,203.3,530,203.2z"/>
		<path class="st183" d="M531.2,134.4c-0.5,2.7-0.9,5.4-1.4,8.1c-1.6-6.2-1.8-12.4,0.1-18.6C530.4,127.4,530.8,130.9,531.2,134.4z"
			/>
		<path class="st184" d="M557.9,207.8c-3.9,0.5-7.9,4.8-11.7-0.2c1.6-2,2.9-4.3,5.7-4.9C552.8,205.8,553.3,209.3,557.9,207.8z"/>
		<path class="st185" d="M511.3,210.2c0.8,0.3,1.5,0.7,2.3,1c-5.4,0.4-10.8,0.5-16.2-0.2C501.9,209.3,506.7,210.6,511.3,210.2z"/>
		<path class="st186" d="M474,156.6c-7.9,10.2-10.9,21.7-8.3,34.4c0.2,0.9,0.1,1.9,0.1,2.9c-2.6-1.3-2.6-4.4-4.5-6.1
			c-0.5-2.6-1-5.3-1.5-7.9c-0.7-3.9-0.7-7.7,0-11.6c1.5-12.3,8-21.8,16.5-30.3c1.7-1.7,4.2-1.1,6.2-2.1c1.1-0.3,2-0.9,3.2-0.9
			c2.1,0.6,3.4,1.9,4,4c-0.1,3-2.6,4.1-4.5,5.6c-4,3.1-7.5,6.5-10.2,10.8C474.8,155.8,474.4,156.2,474,156.6z"/>
		<path class="st187" d="M450.8,163.5c-1-5.4-0.7-10.8,0-16.3C452.6,152.7,452.5,158.1,450.8,163.5z"/>
		<path class="st188" d="M470.5,120.2c0.4,2.8,0.8,5.6,1.2,8.3c-0.9,0.6-0.3,1.9-1.2,2.5c-0.4-0.8-0.8-1.7-1.3-2.5
			C469.7,125.8,468.7,122.8,470.5,120.2z"/>
		<path class="st189" d="M470.5,131.1c0.1-1,0.3-1.9,1.2-2.5c1.2,2.7,2.3,5.3,3.5,8C472.5,135.7,471,133.8,470.5,131.1z"/>
		<path class="st134" d="M459.9,168.3c0,3.9,0,7.7,0,11.6C458.3,176,458.3,172.1,459.9,168.3z"/>
		<path class="st134" d="M456.6,174.8c-0.9-0.1-1.7-0.5-1.6-1.3c0.1-0.8,0.6-1.9,1.3-2.3c0.7-0.4,1.3,0.4,1.3,1.2
			C457.7,173.4,457.8,174.4,456.6,174.8z"/>
		<path class="st190" d="M483.4,136.8c-2,2.1-4.6,0.8-6.9,1.2c-0.1-0.3-0.1-0.6,0-0.9c0,0-0.2-0.3-0.2-0.3l0.1-0.3
			C478.7,136.5,481.1,134.9,483.4,136.8z"/>
		<path class="st191" d="M474,156.6c0-0.4,0-0.8,0-1.2c4.3-3.2,7.9-6.9,10.5-11.6c1.4-1.7,3.8-2.4,4.7-4.6c0.8-0.7,1.7-0.8,2.6-0.4
			c2.2,1.5,2.2,3.9,2.7,6.1c0.8,3.2,1.7,6.3,3.3,9.2c1,1.8,2.3,3.7,0.6,5.8c-0.6,1.5-1.6,0.4-2.4,0.3c-3.5-1.8-6.9-0.5-10.4,0.1
			c-0.3,0-0.7,0-1-0.1c-1.2,1.4-2.5,2.6-4.6,2.1c-2.2-0.7-3.4-2.3-3.7-4.6C475.8,156.7,475,156.6,474,156.6z"/>
		<path class="st192" d="M476.4,157.6c1.2,1.2,2.3,2.4,3.5,3.6c1.6,4.4-1.1,5.5-4.6,5.9C470.1,164.3,470.3,162.4,476.4,157.6z"/>
		<path class="st193" d="M489.2,182c2.7,1.7,2.7,4.6,3.5,7.2c-5.5-2.1-8.6-7-12.2-11.2c-1.1-1.3,1-0.5,1.6-0.5
			C484.5,178.9,486.8,180.6,489.2,182z"/>
		<path class="st194" d="M489.2,182c-3.3,0-5.4-2-7.1-4.4c-0.8-3.1-1.3-6.1-1-9.3c0-2.5-0.3-5.3,3.3-5.9c0.8,0.6,0.7,1.3,0.3,2
			C481.3,171.5,483.5,177.2,489.2,182z"/>
		<path class="st195" d="M484.4,162.3c-1.1,2-2.2,3.9-3.3,5.9c-1.7-1.6-4.2,1.2-5.8-1.1c2.6-1.1,4.4-2.9,4.6-5.9
			c1.6-0.4,3.2-0.7,4.9-1.1C484.6,160.9,484.5,161.6,484.4,162.3z"/>
		<path class="st196" d="M495,191.6c3.2-0.1,4.1,2.2,4.7,4.7C497.7,195.1,496.1,193.5,495,191.6z"/>
		<path class="st133" d="M475.5,204.2c-0.9,0.2-1.9,0.7-2.6,0.4c-1.2-0.5-0.5-1.5-0.1-2.4C474,202.4,474.8,203.3,475.5,204.2z"/>
		<path class="st197" d="M127.8,135.4c0.1,1.2,0.1,2.3,0.2,3.5c-0.1,0.9-0.2,1.8-0.2,2.8c-2.2-1.3-0.7-4-2.5-5.2
			C126.1,136.2,126.9,135.8,127.8,135.4z"/>
		<path class="st198" d="M116.3,114.6c1.1-0.4,1.9-1.2,2.4-2.3c1.5,1.3,1.4,2.4-0.2,3.5C117.1,116.6,116.4,116.1,116.3,114.6z"/>
		<path class="st199" d="M499.8,119.6c0.8-1.3,1.5-2.5,2.3-3.8c1.2-4.6,2.7-8.6,8.8-8.2c4.9,0.3,12.1,5.3,14,11.2
			c4,12.3,5.8,24.5-5.2,34.7c-0.8,0.7-1,2-1.4,3c-5.2,3.7-10.7,3.4-16.3,0.9c-7.4-8.3-9.8-18.1-8.2-28.9
			C495.6,125.3,498.7,123.2,499.8,119.6z"/>
		<path class="st200" d="M493.8,128.5c2.8,5.6-0.4,12.2,3.3,17.8c2.1,3.1,3.3,6.9,4.9,10.3c0.7,2.1-0.7,2.9-2.3,3.4
			c-0.4,0-0.8-0.1-1.2-0.1c-2.8-6.8-5.7-13.5-7-20.8c-1.9-2.3-1.7-4.9-1.1-7.6c0.2-0.6,0.6-1.2,1.2-1.6
			C492.3,129.4,493.1,128.9,493.8,128.5z"/>
		<path class="st201" d="M491.6,129.9c0,0.3-0.1,0.6-0.2,0.9c-1,2.8-3.2,4.1-5.9,4.7c-0.7,0.4-1.4,0.9-2.1,1.3
			c-2.3-0.2-4.7,0.9-7-0.3c4.4-2.2,9.7-2.6,12.8-7.2C489.9,128.4,491,128.9,491.6,129.9z"/>
		<path class="st202" d="M499.7,160c0.8-1.1,1.5-2.3,2.3-3.4c5.4,1.8,10.9,0.9,16.3,0c0.9,0.8,1.8,1.7,2.6,2.5
			C513.9,164.8,509.1,165,499.7,160z"/>
		<path class="st194" d="M485.7,160.2c3.5-2.2,6.9-4.1,10.4-0.1C492.7,160.1,489.2,162.2,485.7,160.2z"/>
		<path class="st203" d="M484.5,143.7c-1.1,6-5.1,10.5-10.5,11.6C475.9,150.1,480.3,147,484.5,143.7z"/>
		<path class="st190" d="M485.4,135.5c2-1.6,3.9-3.1,5.9-4.7c0,2.8,0.1,5.5,0.1,8.3c-0.8,0-1.5,0-2.3,0
			C488,137.9,486.7,136.7,485.4,135.5z"/>
	</g>
</g>
</svg>
