<?xml version="1.0" encoding="utf-8"?>
<!-- Generator: Adobe Illustrator 23.0.1, SVG Export Plug-In . SVG Version: 6.00 Build 0)  -->
<svg version="1.1" id="OBJECTS" xmlns="http://www.w3.org/2000/svg" xmlns:xlink="http://www.w3.org/1999/xlink" x="0px" y="0px"
	 viewBox="0 0 3604.1 1265.8" style="enable-background:new 0 0 3604.1 1265.8;" xml:space="preserve">
<style type="text/css">
	.st0{fill:#FF640A;}
	.st1{fill:#FFFFFF;}
</style>
<g>
	<path class="st0" d="M528.6,740.9H425.7L410.3,779c-9.4,21.3-25.7,31.2-42.1,31.2c-25.7,0-52-17.8-52-45.5c0-8.4,1-14.8,3.5-19.3
		L437.6,487c7.9-17.3,18.3-28.7,44.5-28.7c25.2,0,36.1,11.4,43.5,29.2L633,745.3c2.5,4.9,3.5,11.4,3.5,19.3
		c0,26.2-25.7,45.5-51.5,45.5c-21.3,0-35.1-10.4-42.6-31.2L528.6,740.9z M455.9,665.2h46.5l-21.3-62.8L455.9,665.2z"/>
	<path class="st0" d="M844.8,503.9c0-29.7,20.8-45.5,46.5-45.5c24.2,0,45.5,15.8,45.5,45.5v258.3c0,30.2-22.3,48-45.5,48
		c-15.8,0-31.7-7.4-43.1-24.7l-90.1-134.1v113.3c0,29.7-20.8,45.5-46.5,45.5c-24.2,0-45-15.8-45-45.5V505.8
		c0-29.7,21.8-47.5,45-47.5c16.3,0,32.2,6.9,43.5,24.2l89.6,134.1V503.9z"/>
	<path class="st0" d="M1072.4,762.2c0,31.7-22.3,48-48,48c-26.2,0-48-16.3-48-48V505.8c0-30.2,21.8-47.5,48-47.5
		c25.7,0,48,17.3,48,47.5V762.2z"/>
	<path class="st0" d="M1244.6,659.7l-35.6-46.5v148.9c0,31.2-22.3,48-47.5,48c-26.2,0-48.5-16.3-48.5-48V509.3
		c0-32.2,24.2-51,50.5-51c17.3,0,35.6,8.4,48,24.2l68.3,87.6l68.8-87.6c12.4-15.8,30.2-24.2,47.5-24.2c26.2,0,51,18.8,51,51v252.9
		c0,31.7-22.3,48-48.5,48c-25.7,0-47.5-16.3-47.5-48V613.2l-35.1,46.5c-11.4,15.3-22.8,20.3-36.1,20.3
		C1266.9,680,1255,673.1,1244.6,659.7z"/>
	<path class="st0" d="M1535.1,808.2c-31.7,0-47.5-16.3-47.5-48.5V508.3c0-32.2,15.8-48.5,47.5-48.5h163.3c30.2,0,48,22.3,48,48.5
		s-17.8,48.5-48,48.5h-115.3V590h96c27.7,0,44,20.3,44,44c0,23.8-16.3,44-44,44h-96v33.6h115.3c30.2,0,48,21.8,48,48
		s-17.8,48.5-48,48.5H1535.1z"/>
	<path class="st1" d="M2044.8,808.2h-95.5c-31.7,0-47.5-23.8-47.5-48.5c0-23.8,16.3-48,48.5-48h100c13.4,0,19.3-9.4,19.3-17.8
		c0-9.4-5.9-18.8-19.3-18.8h-49.5c-67.8,0-102.4-31.7-102.4-103.4c0-74.7,36.6-111.8,109.4-111.8h77.2c33.2,0,50.5,24.2,50.5,48
		c0,24.2-17.3,49-51,49h-83.1c-13.4,0-18.8,8.9-18.8,18.3c0,8.4,5.4,17.8,18.8,17.8h49.5c69.8,0,102.4,32.7,102.4,104.4
		C2153.2,771.1,2117,808.2,2044.8,808.2z"/>
	<path class="st1" d="M2354.6,762.2c0,31.7-22.3,48-48.5,48c-25.7,0-47.5-16.3-47.5-48V556.8h-33.6c-30.2,0-48-22.3-48-48.5
		s17.8-48.5,48-48.5h162.3c30.2,0,48.5,22.3,48.5,48.5s-18.3,48.5-48.5,48.5h-32.7V762.2z"/>
	<path class="st1" d="M2616.8,740.9h-102.9l-15.3,38.1c-9.4,21.3-25.7,31.2-42.1,31.2c-25.7,0-52-17.8-52-45.5
		c0-8.4,1-14.8,3.5-19.3L2525.8,487c7.9-17.3,18.3-28.7,44.5-28.7c25.2,0,36.1,11.4,43.5,29.2l107.4,257.8
		c2.5,4.9,3.5,11.4,3.5,19.3c0,26.2-25.7,45.5-51.5,45.5c-21.3,0-35.1-10.4-42.6-31.2L2616.8,740.9z M2544.1,665.2h46.5l-21.3-62.8
		L2544.1,665.2z"/>
	<path class="st1" d="M2904.3,557.8c-53.4,0-80.2,37.6-80.2,76.2c0,39.6,26.7,77.7,79.7,77.7h35.6c32.7,0,48,24.2,48,48
		c0,25.7-15.8,48.5-48,48.5h-35.1c-115.3,0-173.2-85.1-173.2-171.7c0-87.6,59.9-176.7,180.6-176.7h27.7c31.7,0,49,24.2,49,49
		c0,25.2-17.3,49-49,49H2904.3z"/>
	<path class="st1" d="M3117.1,762.2c0,31.7-22.3,48-48,48c-26.2,0-48-16.3-48-48V505.8c0-30.2,21.8-47.5,48-47.5
		c25.7,0,48,17.3,48,47.5V588l78.7-111.3c9.4-13.9,16.8-18.3,37.1-18.3c31.7,0,50,20.3,50,48c0,11.4-3,22.3-10.9,30.2l-80.7,91.1
		l81.2,103.9c7.4,9.4,11.4,19.8,11.4,30.2c0,29.7-20.3,48.5-50,48.5c-14.4,0-27.7-5.4-37.1-18.8L3117.1,680V762.2z"/>
</g>
</svg>
